<?xml version="1.0" encoding="utf-8"?>
<!-- Generator: Adobe Illustrator 26.0.0, SVG Export Plug-In . SVG Version: 6.00 Build 0)  -->
<svg version="1.1" id="Capa_1" xmlns="http://www.w3.org/2000/svg" xmlns:xlink="http://www.w3.org/1999/xlink" x="0px" y="0px"
	 viewBox="0 0 1920 1080" style="enable-background:new 0 0 1920 1080;" xml:space="preserve">
<style type="text/css">
	.st0{fill:#CCCCCC;}
	.st1{fill:#F15A24;}
</style>
<circle class="st0" cx="1994.4" cy="678" r="228"/>
<circle class="st0" cx="-159.4" cy="840.9" r="228"/>
<circle class="st0" cx="291.8" cy="953.6" r="61.8"/>
<circle class="st0" cx="1763.9" cy="177.7" r="54.2"/>
<circle class="st0" cx="-1.1" cy="156" r="44.8"/>
<circle class="st0" cx="1700.1" cy="378.9" r="22"/>
<circle class="st0" cx="1620.3" cy="260" r="52.1"/>
<g>
	
		<ellipse transform="matrix(0.278 -0.9606 0.9606 0.278 -197.1099 404.6439)" class="st1" cx="170.6" cy="333.4" rx="10.9" ry="11.3"/>
	<polygon class="st1" points="169.9,705.9 165.6,705.7 168.2,358.5 172.6,358.6 	"/>
	
		<ellipse transform="matrix(0.278 -0.9606 0.9606 0.278 -162.678 379.0914)" class="st1" cx="170.8" cy="297.8" rx="10.9" ry="11.3"/>
	
		<ellipse transform="matrix(0.278 -0.9606 0.9606 0.278 -128.3158 353.6939)" class="st1" cx="171.1" cy="262.2" rx="10.9" ry="11.3"/>
	<polygon class="st1" points="183.4,758 179.1,757.9 180.7,546.3 185,546.5 	"/>
	<ellipse transform="matrix(0.278 -0.9606 0.9606 0.278 -579.4844 708.198)" class="st1" cx="181.4" cy="739.6" rx="6.8" ry="7.1"/>
	
		<ellipse transform="matrix(0.278 -0.9606 0.9606 0.278 -612.1356 732.3872)" class="st1" cx="181.1" cy="773.4" rx="14" ry="14.6"/>
	<polygon class="st1" points="182.9,828.7 178.5,828.6 178.8,785.9 183.2,786 	"/>
	<polygon class="st1" points="176.4,706 176.4,710.3 159,709.8 159.1,705.6 	"/>
	<path class="st1" d="M75.5,558.9"/>
	<g>
		<path class="st1" d="M181.8,401.5c-62-1.7-112.7,45.6-113.2,105.6c-0.1,16.7,3.7,32.7,10.5,47c-4.8-10.4-12.2-30.1-10.2-54.7
			c1-12.3,4-22.5,7-30.2c20.4-45.5,67.9-72.5,115.8-67.1c65,7.4,103.6,71.4,101.2,117.4c-1,19.4-9.2,36-12.6,42.2
			c-15.5,28.4-39.8,42-49.9,47c-9.6,2.9-19.2,5.8-28.8,8.7c51.8-8.3,91.3-51.3,91.7-104.2C293.7,453.2,243.8,403.2,181.8,401.5z"/>
	</g>
</g>
<g>
	
		<ellipse transform="matrix(0.2693 -0.9631 0.9631 0.2693 597.1586 2031.4756)" class="st1" cx="1637.3" cy="622.2" rx="10.9" ry="11.3"/>
	<polygon class="st1" points="1640.1,994.7 1635.7,994.6 1635.2,647.3 1639.6,647.4 	"/>
	
		<ellipse transform="matrix(0.2693 -0.9631 0.9631 0.2693 631.5157 2005.4034)" class="st1" cx="1637.3" cy="586.5" rx="10.9" ry="11.3"/>
	
		<ellipse transform="matrix(0.2693 -0.9631 0.9631 0.2693 665.7162 1979.2632)" class="st1" cx="1637.2" cy="550.9" rx="10.9" ry="11.3"/>
	<polygon class="st1" points="1654,1046.7 1649.6,1046.6 1649.3,835.1 1653.7,835.2 	"/>
	
		<ellipse transform="matrix(0.2693 -0.9631 0.9631 0.2693 216.742 2342.188)" class="st1" cx="1651.8" cy="1028.3" rx="6.8" ry="7.1"/>
	
		<ellipse transform="matrix(0.2693 -0.9631 0.9631 0.2693 184.2887 2366.8125)" class="st1" cx="1651.8" cy="1062" rx="14" ry="14.6"/>
	<polygon class="st1" points="1654.1,1117.5 1649.7,1117.4 1649.7,1074.6 1654.1,1074.7 	"/>
	<polygon class="st1" points="1646.6,994.8 1646.6,999.1 1629.2,998.7 1629.2,994.5 	"/>
	<path class="st1" d="M1544.3,848.6"/>
	<g>
		<path class="st1" d="M1649.1,690.3c-62.1-1.1-112.3,46.6-112.2,106.6c0,16.7,4,32.7,11,46.9c-4.9-10.3-12.4-30-10.7-54.6
			c0.9-12.3,3.8-22.6,6.8-30.2c19.9-45.7,67.2-73.2,115.2-68.1c65.1,6.8,104.2,70.5,102.3,116.4c-0.8,19.4-8.9,36-12.2,42.3
			c-15.2,28.5-39.4,42.4-49.5,47.4c-9.6,3-19.2,6-28.8,9c51.8-8.8,90.8-52.1,90.7-105C1761.6,741,1711.2,691.4,1649.1,690.3z"/>
	</g>
</g>
</svg>
