<?xml version="1.0" encoding="utf-8"?>
<!-- Generator: Adobe Illustrator 26.0.0, SVG Export Plug-In . SVG Version: 6.00 Build 0)  -->
<svg version="1.1" id="Capa_1" xmlns="http://www.w3.org/2000/svg" xmlns:xlink="http://www.w3.org/1999/xlink" x="0px" y="0px"
	 viewBox="0 0 960 560" style="enable-background:new 0 0 960 560;" xml:space="preserve">
<style type="text/css">
	.st0{fill:#F15A24;}
</style>
<g>
	<path class="st0" d="M479.9,363.4c-45.9,0-83.3-37.4-83.3-83.3c-0.1-46.4,38-83.8,84.2-83.5c45.4,0.3,82.7,37.8,82.6,83.7
		C563.4,326.1,525.9,363.4,479.9,363.4z M521.2,305.9c-8.9-8.8-17.5-17.3-26.5-26.2c8.8-8.7,17.4-17.2,25.7-25.3
		c-5-5.1-9.9-10-15.1-15.2c-8.4,8.5-16.9,17-25.6,25.9c-8.6-8.6-17.1-17.1-25.7-25.7c-0.7,0.6-1.3,1.2-2,1.8
		c-3.9,3.9-7.8,7.9-11.7,11.7c-1,1-1,1.6,0,2.6c5.3,5.2,10.6,10.5,15.9,15.8c2.9,2.9,5.8,5.7,9.1,8.8c-8.8,8.8-17.4,17.2-25.8,25.5
		c5,5.1,9.9,10,15,15.1c8.4-8.5,17-17,25.5-25.7c0.6,0.6,1.1,1,1.6,1.5c7.1,7.1,14.1,14.1,21.2,21.2c3.2,3.2,3.2,3.2,6.5,0
		C513.1,313.9,517,310.1,521.2,305.9z"/>
	<path class="st0" d="M402.2,368.3c1.4-0.4,3.8-0.9,6.2-1.6c1.2-0.4,1.7,0,2.3,0.9c3,4.9,5.2,10.2,6.6,15.7c0.4,1.4,0,2.1-1.2,2.7
		c-1.4,0.7-2.7,1.6-4,2.4c-6.1,3.8-6.1,12.6,0,16.4c1.6,1,3.2,1.9,4.8,2.9c0.4,0.3,0.7,1.1,0.6,1.5c-1.3,6-3.6,11.6-6.9,16.8
		c-0.3,0.4-1.2,0.7-1.7,0.6c-1.7-0.3-3.3-0.8-4.9-1.2c-7.3-1.8-13.6,4.5-11.9,11.8c0.4,1.6,0.8,3.3,1.3,4.9c0.3,1,0,1.5-0.8,2.1
		c-5.1,3.1-10.5,5.3-16.3,6.8c-1.1,0.3-1.6-0.1-2.1-1c-0.8-1.5-1.7-2.9-2.6-4.3c-3.9-6.2-12.7-6.1-16.5,0.1
		c-0.9,1.5-1.8,3.1-2.8,4.6c-0.3,0.4-1.1,0.7-1.5,0.6c-5.9-1.3-11.3-3.6-16.5-6.6c-1-0.6-1.2-1.2-0.9-2.2c0.5-1.6,0.9-3.2,1.3-4.9
		c1.7-7-4.6-13.4-11.7-11.7c-1.6,0.4-3.3,0.8-4.9,1.3c-1.1,0.4-1.7,0-2.3-0.9c-3.1-5.1-5.3-10.5-6.7-16.3c-0.2-1,0-1.4,0.8-1.8
		c1.6-0.9,3.2-1.9,4.8-2.9c5.9-3.8,5.7-12.5-0.2-16.2c-1.6-1-3.3-1.8-4.8-2.9c-0.4-0.3-0.7-1.1-0.6-1.5c1.2-6,3.6-11.6,6.8-16.8
		c0.3-0.4,1.2-0.8,1.7-0.7c1.9,0.4,3.8,1,5.8,1.4c6.4,1.3,12.4-4.6,11.2-11c-0.4-2-1-4-1.5-5.9c-0.2-0.9-0.1-1.4,0.8-1.9
		c5.1-3.2,10.6-5.4,16.4-6.9c1-0.3,1.5,0,2,0.9c0.9,1.6,1.8,3.2,2.9,4.8c3.9,5.9,12.6,5.7,16.2-0.3c0.9-1.5,1.8-3.1,2.8-4.6
		c0.3-0.4,1.1-0.9,1.6-0.8c6,1.3,11.6,3.6,16.8,6.9c0.4,0.3,0.7,1.2,0.6,1.7c-0.3,1.8-0.9,3.6-1.3,5.4
		C390.5,362.7,395,368.2,402.2,368.3z M363.1,424.8c14.6,0.3,27.7-12.2,28-26.8c0.3-16.1-11.8-28.9-27.6-29.1
		c-15.3-0.3-28,12.2-28.2,27.7C335.1,411.9,347.5,424.5,363.1,424.8z"/>
	<path class="st0" d="M643.4,132.7c3.6,5.5,6.1,11.3,7.6,17.6c0.1,0.5-0.4,1.4-0.9,1.8c-1.4,1-3,1.8-4.5,2.7
		c-6.1,3.9-6.1,12.5,0,16.4c1.5,0.9,3,1.8,4.5,2.7c0.9,0.5,1.2,1,0.9,2c-1.4,5.8-3.7,11.3-6.7,16.5c-0.5,0.8-1,1-1.9,0.7
		c-1.6-0.5-3.3-0.8-4.9-1.2c-7.1-1.8-13.6,4.5-11.8,11.7c0.4,1.6,0.7,3.2,1.2,4.7c0.4,1.2,0.2,1.8-0.9,2.5c-5,3-10.4,5.3-16.1,6.7
		c-1,0.2-1.5,0.1-2-0.8c-0.8-1.5-1.7-3-2.7-4.5c-3.8-6.1-12.4-6.1-16.3-0.2c-1,1.5-1.9,3.1-2.8,4.7c-0.5,0.9-1,1.2-2,0.9
		c-5.8-1.4-11.3-3.7-16.5-6.8c-0.8-0.5-1-0.9-0.8-1.9c0.5-1.7,0.9-3.4,1.3-5.1c1.7-7.1-4.6-13.4-11.7-11.7c-1.6,0.4-3.2,0.8-4.7,1.3
		c-1.1,0.4-1.8,0.2-2.5-0.9c-3-5-5.2-10.3-6.6-15.9c-0.3-1.1-0.2-1.8,0.9-2.3c1.5-0.8,2.9-1.7,4.3-2.6c6.2-3.9,6.1-12.7-0.1-16.5
		c-1.5-0.9-3-1.7-4.5-2.7c-0.4-0.3-0.9-1.2-0.8-1.6c1.2-5.9,3.6-11.5,6.7-16.7c0.5-0.8,1-1.1,1.9-0.8c1.8,0.5,3.6,0.9,5.4,1.4
		c6.6,1.5,12.7-4.3,11.5-10.9c-0.4-1.9-0.9-3.9-1.5-5.8c-0.3-0.9-0.2-1.5,0.8-2.1c5.2-3.1,10.7-5.5,16.6-6.8
		c0.5-0.1,1.3,0.3,1.6,0.8c1,1.4,1.8,3,2.7,4.5c3.8,6.3,12.6,6.3,16.5,0.1c0.9-1.5,1.8-3,2.6-4.5c0.5-0.9,1-1.2,2-0.9
		c5.8,1.4,11.3,3.7,16.5,6.8c0.8,0.5,1,1.1,0.7,1.9c-0.5,1.8-1,3.6-1.4,5.4c-1.5,6.8,4.9,13,11.6,11.4
		C639.1,133.9,641.2,133.3,643.4,132.7z M568.9,163c-0.1,15.3,12.5,28.1,27.9,28.2c15.2,0.1,27.8-12.4,28-27.8
		c0.1-15.3-12.3-28-27.7-28.2C581.8,135,569,147.7,568.9,163z"/>
	<path class="st0" d="M644.6,206.1c28.7,62.4,20,145.9-38.3,202.9c-60.1,58.7-143.2,62.2-200.4,35.5c2.9-2.8,5.6-5.6,8.5-8.2
		c0.4-0.3,1.4-0.1,2.1,0.1c7.7,2.4,15.2,5.3,23,7.4c17.2,4.5,34.7,5.9,52.5,4.6c26.6-2,51.5-9.6,74.4-23.3
		c29.6-17.7,51.7-42.3,66.6-73.4c7.3-15.4,12.1-31.7,14.3-48.6c3.4-25.5,1.3-50.4-6.5-74.9c-1.3-4-2.9-7.9-4.3-11.9
		c-0.2-0.6-0.3-1.6,0-1.9C639,211.6,641.8,209,644.6,206.1z"/>
	<path class="st0" d="M553.9,115.5c-2.8,2.8-5.4,5.5-8.2,8.1c-0.4,0.4-1.4,0.2-2.1,0c-8-2.5-15.9-5.6-24.1-7.6
		c-24-6-48.2-6.3-72.5-1.5c-25.5,5-48.6,15.5-69.3,31.2c-23.9,18.2-41.7,41.3-53.4,69c-6.3,14.8-10.3,30.2-12,46.1
		c-3.1,28.3,0.5,55.7,11.1,82.1c0.7,1.7,0.6,2.7-0.8,4c-2.4,2.2-4.7,4.7-7,7.1c-24.7-51-26.2-134.5,32.6-197.3
		C409.4,91.4,497.2,88.6,553.9,115.5z"/>
	<path class="st0" d="M363.4,382.6c8.2,0.1,14.1,6.3,14,14.7c-0.1,7.7-6.6,13.9-14.5,13.7c-7.7-0.1-14.1-6.7-13.9-14.4
		C349.1,388.7,355.4,382.5,363.4,382.6z"/>
	<path class="st0" d="M611,163.3c0,7.8-6.3,14.1-14.1,14.1c-8,0-14.3-6.4-14.3-14.4c0.1-7.9,6.4-14.1,14.4-14.1
		C604.9,149,611,155.3,611,163.3z"/>
</g>
</svg>
