<?xml version="1.0" encoding="utf-8"?>
<!-- Generator: Adobe Illustrator 26.0.0, SVG Export Plug-In . SVG Version: 6.00 Build 0)  -->
<svg version="1.1" id="Capa_1" xmlns="http://www.w3.org/2000/svg" xmlns:xlink="http://www.w3.org/1999/xlink" x="0px" y="0px"
	 viewBox="0 0 1920 1080" style="enable-background:new 0 0 1920 1080;" xml:space="preserve">
<style type="text/css">
	.st0{fill:url(#SVGID_1_);}
	.st1{display:none;}
	.st2{display:inline;fill:#1A1A1A;}
	.st3{display:none;fill:#1A1A1A;}
	.st4{display:inline;fill:none;stroke:#1A1A1A;stroke-width:40;stroke-miterlimit:10;}
	.st5{display:none;fill:none;stroke:#1A1A1A;stroke-width:12;stroke-miterlimit:10;}
	.st6{fill:#4D4D4D;}
	.st7{fill:#FFFFFF;}
	.st8{fill:#999999;}
	.st9{fill:#CCCCCC;}
	.st10{fill:#F15A24;}
	.st11{fill:#F15A24;stroke:#000000;stroke-miterlimit:10;}
	.st12{fill:#1A1A1A;stroke:#1A1A1A;stroke-miterlimit:10;}
	.st13{fill:#1A1A1A;}
	.st14{fill:#666666;}
	.st15{fill:#333333;}
	.st16{opacity:9.000000e-02;fill:#1A1A1A;enable-background:new    ;}
	.st17{opacity:0.17;fill:#1A1A1A;enable-background:new    ;}
	.st18{opacity:0.13;fill:#1A1A1A;enable-background:new    ;}
</style>
<linearGradient id="SVGID_1_" gradientUnits="userSpaceOnUse" x1="954.179" y1="840.7222" x2="938.7" y2="1987.9396" gradientTransform="matrix(1 0 0 1 0 384)">
	<stop  offset="0.3758" style="stop-color:#CCCCCC"/>
	<stop  offset="0.3927" style="stop-color:#B5B5B5"/>
	<stop  offset="0.4243" style="stop-color:#919191"/>
	<stop  offset="0.4599" style="stop-color:#717171"/>
	<stop  offset="0.4993" style="stop-color:#555555"/>
	<stop  offset="0.5438" style="stop-color:#3F3F3F"/>
	<stop  offset="0.5957" style="stop-color:#2E2E2E"/>
	<stop  offset="0.6599" style="stop-color:#232323"/>
	<stop  offset="0.75" style="stop-color:#1C1C1C"/>
	<stop  offset="1" style="stop-color:#1A1A1A"/>
</linearGradient>
<path class="st0" d="M1920,1080H2.3c-1-171.4-2.1-342.7-3.1-514.1C639.5,440.6,1279.7,315.3,1920,190.1V1080z"/>
<g class="st1">
	<path class="st2" d="M-477.2,0.2c0,47.1,0.1,94.2,0,141.3c-0.2,84.6-67.8,152.1-152.5,152.2c-94.2,0.1-188.5,0.1-282.7,0
		c-84.5-0.1-152.3-68-152.4-152.5c-0.1-94.2-0.1-188.5,0-282.7c0.1-84.3,68.2-152.3,152.6-152.4c94.2-0.1,188.5-0.1,282.7,0
		c84.4,0.1,152.1,68.1,152.3,152.7C-477.1-94-477.2-46.9-477.2,0.2z M-1014.2,0.5c0,46,0,92,0,137.9c0,6.6-0.2,13.3,1,19.6
		c10,52.4,50.6,86,103.8,86c92.5,0,185.1,0.1,277.6,0c60.3,0,104.8-44.6,104.8-105c0.1-92.2-0.7-184.5,0.3-276.7
		c0.6-60.2-48.5-106.6-105.3-105.8c-92.5,1.2-185.1,0.3-277.6,0.4c-6.3,0-12.6-0.1-18.8,1c-53.3,9-87.3,55.7-86.1,103.9
		C-1013.3-92.1-1014.2-45.8-1014.2,0.5z"/>
	<path class="st2" d="M-770.3-145.8c81.2,0.2,146.1,65.7,145.8,146.9c-0.3,80.8-65.5,145.5-146.3,145.4
		c-81.2-0.2-146.4-65.8-146-146.8C-916.4-81-850.9-146-770.3-145.8z M-770.7-101C-827.3-100.9-872.1-56-872,0.7
		c0.1,56.4,45.4,101.5,101.9,101.3c55.8-0.2,101-45.5,101.1-101.4C-669-55.9-714.2-101-770.7-101z"/>
	<path class="st2" d="M-574.8-162.3c0,18.8-14.9,33.7-33.6,33.7c-18.6-0.1-33.7-15.2-33.7-33.7s15.4-33.8,33.8-33.8
		C-589.7-196.2-574.8-181.1-574.8-162.3z"/>
</g>
<path class="st3" d="M29.9-244.1c40.5-70,98.3-115.7,176.1-134.6c133-32.3,271.1,43.4,315.5,173.6c5.6,16.4,13.2,24,30.3,29.1
	C653.7-145.7,717-76.8,733.7,27.4c16.8,104.4-22.8,189-109.8,249.8c-41.9,29.3-89.4,42.2-140.4,42.2c-227.3,0.1-454.5,0.1-681.8,0
	c-99.9,0-184.6-69.8-200.9-168.4C-417.9,38.7-345.4-58-242.7-80.8c10.3-2.3,13.6-6.6,15.9-15.5c20.4-79.2,70.7-129.2,149.2-150.3
	C-42-256.2-6-253.3,29.9-244.1z M-162.2-14.5c-12.1,0-23.4-0.1-34.6,0c-44.8,0.7-82.3,17.4-108.5,54.3
	C-336,83-339.8,130.1-315.5,177c24.5,47.3,65.6,71.1,119.1,71.1c226,0.2,452,0.1,678,0.1c25.1,0,49.4-3.8,72.5-14.2
	c66.8-30.1,105.5-81.3,110.9-154.5c5-69.5-23.7-124.3-80.8-163.8c-29.5-20.5-63-30.1-98.7-29.9c-13.8,0.1-20.3-4.3-20.2-18
	c0-2.5-0.3-5-0.6-7.5c-9.5-64.8-41.5-115.3-98.1-148.1c-107.3-62.1-243.3-11.4-285.4,105.1c-4.2,11.8-8.7,23.4-13.5,36.3
	c-12.3-6.6-23.3-12.5-34.5-18.3c-83.7-43.5-178.9,4.6-192.4,97.9C-161.8-50.1-161.3-32.7-162.2-14.5z"/>
<g class="st1">
	<path class="st2" d="M-1388.2,83.1c4.1,2.4,6.4,3.9,8.8,5.2c17.2,9.5,24.8,24.6,25.2,43.7c0.4,20.3,1.4,40.6,0.6,60.8
		c-0.5,12.5,5.3,19.9,14.4,26.6c2.3,1.7,3.8,4.6,5.7,6.9c-3.1,1.4-6.3,4.1-9.4,4c-5.9-0.2-12.1-1.1-17.7-3.1
		c-13.4-4.8-19.1-13.3-19.2-27.6c-0.1-19.3,0.1-38.7-0.1-58c-0.1-9.9-5-15.7-14.5-17.2c0,9.6,0,19.1,0,28.6c0,17.2,0,34.5,0.1,51.7
		c0,9.5,1.4,18.5,7.4,26.4c1.8,2.3,2.5,5.4,3.7,8.1c-10.5,3.7-28-3.2-32.9-14.4c-4-9.1-6.8-19.4-7.3-29.4
		c-1.1-21.1-0.3-42.4-0.3-63.6c0-3.7,0-7.4,0-11.6c-5.5,0-10.3,0-16.1,0c0,2.4,0,4.8,0,7.3c0,22.4,0.4,44.7-0.2,67.1
		c-0.2,8-1.8,16.2-4.1,23.9c-4.3,14.1-17.1,22.9-31.7,22.9c-1.5,0-3-0.8-4.7-1.2c3-6.9,6.4-13.2,8.6-19.9c1.7-5.2,2.7-10.9,2.8-16.4
		c0.3-25.2,0.1-50.3,0.1-75.5c0-1.3-0.3-2.6-0.4-4c-8.7,1.9-12.5,6.8-12.5,16.7c-0.1,19.1-0.1,38.2-0.1,57.3
		c0,21.3-21.4,37.6-41.9,31.7c-2-0.6-4.2-2.5-4.9-4.3c-0.4-1.1,1.4-3.6,2.8-4.9c2.2-2.1,4.9-3.5,7.3-5.4
		c6.6-5.2,10.4-11.8,10.4-20.3c0-13.7,0-27.4,0-41.4c-3,0-4.1-0.2-5.2,0c-34.1,6.7-58.9-4-76.2-34.3c-7.9-13.8-18.1-25.3-30.1-35.5
		c-5.4-4.6-5.2-8.4,1.7-10c4.8-1.1,11.2-0.9,15.2,1.5c7.2,4.3,13.4,10.5,19.7,16.3c7.6,7.1,14.1,15.6,22.4,21.8
		c14.6,10.9,30.9,12.6,47.2,3.4c3.5-2,6.6-5.6,8.6-9.1c4.9-8.9,11.3-15.9,20.8-19.8c3.2-1.3,6.3-2.7,11-4.7
		c-14.3-2.6-27-4.3-39.5-7.2c-25.2-5.9-48.4-15.9-65.5-36.2c-17.9-21.3-22.5-47-23-73.8c-0.5-28.1,5.6-54,24.7-75.9
		c1.4-1.6,1.7-5.2,1.1-7.5c-4.8-19.6-2.2-38.8,2.8-58c1.7-6.4,4.8-7.2,10.5-6.4c21.1,3.1,40.4,10.5,58,22.7c2.5,1.7,6.5,2.9,9.4,2.2
		c39.2-8.9,78.5-9,117.8-0.8c2.7,0.6,6.4-0.5,8.9-2.1c18.4-11.4,37.4-20.7,59.5-22.2c4.9-0.3,7.5,0.4,8.9,5.8
		c4.6,18,7.2,36,3.9,54.6c-0.4,2.4-0.1,5.9,1.4,7.6c24.8,28.6,29,62.6,25.7,98.5c-5.6,59.8-49.6,89.4-101.3,96.1
		C-1375.4,81.4-1380.8,82.1-1388.2,83.1z"/>
	<circle class="st4" cx="-1445.6" cy="10.3" r="305.7"/>
</g>
<path class="st5" d="M-309.2,543.1h-153c-9.9,0-18-8-18-18V406.7c0-9.9,8-18,18-18h153c9.9,0,18,8,18,18v118.4
	C-291.2,535.1-299.2,543.1-309.2,543.1z"/>
<path class="st5" d="M-265.8,521h-153c-9.9,0-18-8-18-18V384.6c0-9.9,8-18,18-18h153c9.9,0,18,8,18,18V503
	C-247.9,513-255.9,521-265.8,521z"/>
<g class="st1">
	<path class="st2" d="M1666.7,132.6"/>
	<polygon class="st2" points="1234.5,354.3 1305.5,180.4 1336.6,117.8 1650.3,93.7 1637,109.8 1565.7,316.5 1545.4,336.3 	"/>
	<polygon class="st2" points="1295.9,308.9 1364.1,134.9 1570.6,123.2 1498.9,296.3 	"/>
	<polygon class="st2" points="1319.2,177.9 1363.3,253.8 1394.5,244.1 1349.3,174.2 	"/>
	<path class="st2" d="M1312.2,166.4l41.8-3.5l-14.3,34.2l25.3-2.1l14-36.5c13.8-1,27.6-2.1,41.4-3.1c4.1-8,8.3-16.1,12.4-24.1
		c-11.9,0.8-23.8,1.7-35.7,2.5l12.3-32.4l-29.5,1.8l-11.6,33.1l-46.4,4.8C1318.7,149.5,1315.5,157.9,1312.2,166.4z"/>
	<polygon class="st2" points="1339.8,197.1 1336.5,205.2 1369.1,202.2 1365.1,194.9 	"/>
	<polygon class="st2" points="1420.5,155.3 1424.8,164.6 1442.7,132.1 1432.9,131.3 	"/>
	<polygon class="st2" points="1369.1,202.2 1383.7,167.1 1424.8,164.6 1420.5,155.3 1379.1,158.4 1365.1,194.9 	"/>
	<polygon class="st2" points="1349.3,174.2 1319.2,177.9 1312.2,166.4 1354,162.8 	"/>
	<polygon class="st2" points="1409.4,101.4 1417.3,114.4 1410,132.9 1397.1,133.8 	"/>
	<polygon class="st2" points="1336.5,205.2 1384.2,288.2 1419.1,284.7 1369.1,202.2 	"/>
	<polygon class="st2" points="1424.8,164.6 1476.4,244.2 1492.5,214.1 1442.7,132.1 	"/>
	<polygon class="st2" points="1419.1,284.7 1433.9,246.6 1476.4,244.2 1424.8,164.6 1383.7,167.1 1369.1,202.2 	"/>
	<polygon class="st2" points="1295.9,308.9 1289.4,327.5 1514.5,310.3 1498.9,296.3 	"/>
	<polygon class="st2" points="1503.8,338.7 1520,351.8 1539.7,483.2 1529.6,497.2 1464.2,501.7 1453.5,538.2 1385,540.9 1366,509.5 
		1291.5,506.6 1284.8,503 1259,362.5 1266.3,352.4 	"/>
	<polygon class="st2" points="1234.5,354.3 1258.6,509.5 1211.3,501.7 1200.3,555.2 1205.1,571.8 1505.6,556.8 1650.3,545.7 
		1667.5,526.4 1634.3,478.6 1574.9,482.1 1545.4,336.3 1503.8,338.7 1520,351.8 1539.7,483.2 1529.6,497.2 1464.2,501.7 
		1453.5,538.2 1385,540.9 1366,509.5 1291.5,506.6 1284.8,503 1259,362.5 1266.3,352.4 	"/>
	<polygon class="st2" points="1563.7,318.5 1662.7,400.5 1634.3,478.6 1667.5,526.4 1800,175 1790.3,159 1759.7,155.5 1726.5,242.5 
		1623.5,149 	"/>
	<polygon class="st2" points="1570.6,123.2 1593.5,123.2 1514.5,310.3 1498.9,296.3 	"/>
	<path class="st2" d="M1653.6,94c17.8,17.7,35.5,35.3,53.3,53c14.2-1.1,28.4-2.3,42.7-3.4c9.2,4.6,18.4,9.3,27.6,13.9
		c-5.8-0.7-11.6-1.3-17.4-2l-33.2,87l-103-93.5l13.5-39.2l13.3-16.1C1651.4,93.8,1652.5,93.9,1653.6,94z"/>
	<polygon class="st2" points="1563.7,318.5 1545.4,336.3 1574.9,482.1 1634.3,478.6 1662.7,400.5 	"/>
	<path class="st2" d="M1787.6,205.4c0.9,0,20.7-5.9,20.7-5.9l10,19.8l-36.6,4.2L1787.6,205.4z"/>
	<path class="st2" d="M1784.5,158.4c6.6-1.2,18.6-2.1,29.6,4.4c1.5,0.9,2.8,1.8,4,2.8c0.6,0.7,1.7,2.1,2.2,4.2c0.5,2.2,0.2,4,0,4.9
		c-4,8.3-8,16.6-11.9,24.9l10,19.8l14.8-33.7c-1.5-6.9-5-16.5-13.2-24.4c-1.1-1.1-2.3-2-3.4-2.9c-1.4-0.4-2.8-0.7-4.3-1
		C1801.6,155.2,1792,156.4,1784.5,158.4z"/>
	<path class="st2" d="M1201,551.9c-3.8,9.3-7.6,18.7-11.4,28c0,1.3,0.1,4.9,2.5,8.5c1.9,2.8,4.4,4.2,5.6,4.8
		c45.5-3,91.1-5.9,136.6-8.9l15.7-19.8c-47.8,2.4-95.6,4.8-143.4,7.2C1204.7,565.1,1202.8,558.5,1201,551.9z"/>
	<path class="st2" d="M1335.1,583.3c4.4,6.3,8.9,12.6,13.3,18.9c-32.6,1.9-65.2,3.7-97.8,5.6l-38.1,2.5l-9.1-7.7l-5.7-9.5
		L1335.1,583.3z"/>
	<polygon class="st2" points="1348.4,602.3 1335.1,583.3 1349.9,564.6 1362.4,582.6 	"/>
	<polygon class="st2" points="1254.7,607.6 1323,680 1347,676.9 1359.2,681 1378,682.8 1565.6,670.3 1586.4,666.5 1656,665.7 
		1663.7,668.1 1678.6,659 1701,656.9 1713.3,649.4 1704.1,611.8 1726.4,568.2 1736.4,570.1 1746.1,551 1776.7,576.5 1784.6,577.9 
		1794.7,572.6 1789.6,537.8 1789.1,519.6 1774.3,495.1 1774.9,485.9 1779.5,467.2 1801.3,403.7 1795.7,368.3 1813.4,330.2 
		1824,334.4 1833.9,318.6 1820.4,246.6 1804.8,220.9 1781.7,223.5 1667.5,526.4 1650.3,545.7 1349.9,564.6 1362.4,582.6 
		1348.4,602.3 	"/>
	<polygon class="st2" points="1673.2,511.4 1690.9,512.2 1683.6,533.4 1677.6,550 1666.4,560.3 1646.4,567.1 1610.9,569.6 
		1607,563.1 1519.2,568.5 1521.2,553.8 1650.3,545.7 1664.4,528.3 	"/>
	<polygon class="st2" points="1519.2,568.5 1529.4,591.1 1643,586.3 1673.5,580.1 1690.8,564.8 1698.7,540.7 1699.4,526.2 
		1690.9,512.2 1677.6,550 1666.4,560.3 1610.9,569.6 1607,563.1 	"/>
	<path class="st2" d="M1784.5,158.4c3.2-0.9,5.7-1.1,7.5-1.1c1.2,0,1.9,0.1,4.6,0.3c2.5,0.2,4.5,0.3,5.9,0.3
		c1.4,0.3,2.8,0.7,4.2,1.1c3.6,1,6.7,2.3,9.5,3.6c0.7,0.4,3.6,2.3,4.7,6.1c0.8,2.9,0.1,5.3-0.2,6.2c-3.6,7.1-7.1,14.1-10.7,21.2
		l-1.6,3.4l-20.7,5.9c2.4-11.3,4.8-22.5,7.3-33.8C1791.5,167.2,1788,162.8,1784.5,158.4z"/>
	<polyline class="st2" points="1789.8,221.9 1817.5,288 1818.5,332.2 	"/>
	<polyline class="st2" points="1760.4,279.9 1789.9,336.1 1795.7,368.3 	"/>
	<polygon class="st2" points="1746.8,314.6 1774.5,368.4 1785.5,413.4 1748.5,508.1 1740.7,474.9 1706.9,420 	"/>
	<polyline class="st2" points="1693.6,457.2 1725.9,514.8 1736.4,570.1 	"/>
	<polyline class="st2" points="1350.8,566.1 1352.6,569 1402.5,648.5 1419.5,666.4 1432.3,664.8 1435.2,660 1423.6,641 
		1439.9,638.6 1443.2,636.6 1438.1,615.9 1493.1,609.3 1498.4,624.6 1499.8,628.3 1534.8,634.8 1559.9,657.9 1579.7,654.7 
		1546.2,590.4 1528.1,589 1519.2,568.5 1521.2,553.8 1349.9,564.6 	"/>
	<polygon class="st2" points="1211.3,501.7 1244.4,418 1258.6,509.5 	"/>
</g>
<g>
	<ellipse class="st6" cx="1082.4" cy="622" rx="22" ry="22.8"/>
	<polygon class="st6" points="361.7,829.3 359.5,820.7 1032.7,631.4 1034.9,640 	"/>
	<ellipse class="st6" cx="1151.5" cy="602.6" rx="22" ry="22.8"/>
	<ellipse class="st6" cx="1220.6" cy="583.2" rx="22" ry="22.8"/>
	<polygon class="st6" points="268.5,884.6 266.3,876 676.3,760.7 678.5,769.3 	"/>
	<ellipse class="st6" cx="302.8" cy="870.3" rx="13.7" ry="14.2"/>
	<ellipse class="st6" cx="237.4" cy="888.7" rx="28.3" ry="29.4"/>
	<polygon class="st6" points="131.3,923.1 129.1,914.6 211.9,891.3 214.1,899.9 	"/>
	<polygon class="st6" points="365,842 356.8,844.3 348,810.4 356.2,808.1 	"/>
	<path class="st6" d="M593.1,564.4"/>
	<g>
		<path class="st6" d="M957,681.8c-31.5-121-151.3-192.5-267.6-159.8c-32.4,9.1-61.2,25.4-85.1,46.7c17.4-15.2,51.3-40.4,100.1-50.4
			c24.4-5,45.8-4.9,62.3-3.3c99.5,13.9,178.3,90.6,194.6,186.5c22,130-80.2,240.3-170.3,261.5c-38,8.9-74.7,2.3-88.6-0.8
			c-63.6-14.1-103.5-53.4-118.8-70.3c-11-17-22-33.9-33-50.9c45.1,95.6,150.3,147.8,252.8,119C919.7,927.3,988.5,802.7,957,681.8z"
			/>
	</g>
</g>
<g>
	<path class="st6" d="M1210.1,503.1c11.3-28.3,22.6-56.7,33.9-85c5.4,31.9,10.8,63.8,16.2,95.6
		C1243.5,510.2,1226.8,506.6,1210.1,503.1z"/>
	<path class="st7" d="M1664.9,197.6"/>
	<path class="st6" d="M1519.1,337.1c3.5,2.7,7,5.4,10.4,8.1c10.2,49.7,20.3,99.3,30.6,149c-1.9,3-3.8,5.9-5.7,8.9
		c-24.5,4.3-48.9,8.6-73.4,12.8c-6.1,12.6-12,25.1-18.1,37.7l-77.3,2.8l-21.7-34.1l-84.1-3.3l-7.5-4l-29.7-152.6l8.3-11
		L1519.1,337.1z"/>
	<polygon class="st8" points="1233,354.4 1304,179.2 1335.1,116.2 1650.7,92.7 1637.3,108.9 1566.1,317.2 1545.8,337.1 	"/>
	<polygon class="st9" points="1294.8,308.8 1362.8,133.4 1570.5,122.2 1498.8,296.6 	"/>
	<polygon class="st10" points="1317.8,176.7 1362.4,253.4 1393.7,243.7 1348,173.1 	"/>
	<path class="st11" d="M1310.8,165.1l42-3.5l-14.3,34.5l25.5-2.1l14-36.8c13.9-1,27.7-2,41.6-3c4.1-8.1,8.3-16.2,12.4-24.3
		c-12,0.8-24,1.6-35.9,2.4l12.3-32.6l-29.7,1.8l-11.6,33.3l-46.6,4.7C1317.2,148.1,1314,156.6,1310.8,165.1z"/>
	<polygon class="st12" points="1338.5,196.1 1335.3,204.3 1368,201.4 1364,194 	"/>
	<polygon class="st12" points="1419.6,154.3 1423.9,163.6 1441.8,131.2 1432,130.3 	"/>
	<polygon class="st12" points="1368,201.4 1382.6,166 1423.9,163.6 1419.6,154.2 1378,157.2 1364,194 	"/>
	<polygon class="st12" points="1348,173.1 1317.8,176.7 1310.8,165.1 1352.8,161.6 	"/>
	<polygon class="st12" points="1408.6,100.9 1416.2,113.5 1408.8,131.6 1396.2,132.6 	"/>
	<polygon class="st13" points="1335.3,204.3 1383.5,288.2 1418.6,284.7 1368,201.4 	"/>
	<polygon class="st13" points="1423.9,163.6 1476.1,244 1492.2,213.7 1441.9,130.9 	"/>
	<polygon class="st10" points="1418.6,284.7 1433.4,246.3 1476.1,244 1423.9,163.6 1382.6,166 1368,201.4 	"/>
	<polygon class="st6" points="1294.8,308.8 1288.2,327.6 1514.6,310.8 1498.8,296.6 	"/>
	<path class="st13" d="M1233,354.4l24.7,156.6l-47.6-7.9l-10.9,53.9l4.9,16.8l302.3-14.4l145.5-10.8l17.3-19.4l-33.5-48.3l-59.7,3.3
		l-30-147.1l-41.9,2.3l16.3,13.2l20.1,132.6l-10,14.1c-19.4,4.3-38.7,8.6-58.1,12.9c-6.1,9.4-12.3,18.8-18.4,28.2l-68.8,2.6
		l-19.3-31.7l-74.9-3.1l-6.7-3.7l-26.4-141.7l7.4-10.2L1233,354.4z"/>
	<polygon class="st13" points="1564.1,319.2 1663.9,402.2 1635.6,480.9 1669.1,529.2 1801.4,175.1 1791.6,158.9 1760.9,155.3 
		1727.7,243 1623.8,148.4 	"/>
	<polygon class="st6" points="1570.5,122.2 1593.6,122.3 1514.6,310.8 1498.8,296.6 	"/>
	<path class="st6" d="M1654,93c17.9,17.9,35.8,35.7,53.8,53.6c14.3-1.1,28.6-2.2,42.9-3.3c9.3,4.7,18.5,9.4,27.8,14.1
		c-5.8-0.7-11.7-1.4-17.5-2.1l-33.2,87.7L1624,148.4l13.5-39.5l13.3-16.2C1651.8,92.8,1652.9,92.9,1654,93z"/>
	<path class="st6" d="M1567,314.1c-7.1,7.7-14.1,15.3-21.2,23c9.7,51,19.5,102.1,29.2,153.1c20.9-2,41.9-4.1,62.8-6.1
		c10.5-25.6,21.1-51.2,31.6-76.8C1635.3,376.3,1601.1,345.2,1567,314.1z"/>
	<path class="st14" d="M1789.1,205.7c0.9,0,20.8-5.9,20.8-5.9l10.1,20l-36.8,4.2L1789.1,205.7z"/>
	<path class="st13" d="M1785.8,158.3c6.6-1.1,18.7-2.1,29.8,4.5c1.5,0.9,2.8,1.8,4,2.8c0.6,0.7,1.7,2.1,2.2,4.3s0.2,4,0,4.9
		c-4,8.4-8,16.7-12,25.1l10.1,20l14.8-33.9c-1.6-6.9-5-16.7-13.3-24.6c-1.1-1.1-2.3-2.1-3.4-3c-1.4-0.4-2.8-0.8-4.4-1.1
		C1803,155.1,1793.3,156.3,1785.8,158.3z"/>
	<path class="st6" d="M1199.9,553.6c-3.8,9.4-7.6,18.8-11.4,28.3c0,1.3,0.1,5,2.5,8.6c1.9,2.9,4.4,4.3,5.6,4.9
		c45.8-2.9,91.6-5.7,137.4-8.6c5.8-7.3,11.7-14.6,17.5-21.9c-48.6,1.8-97.2,3.7-145.8,5.5c-1-2-2.1-4.2-3.1-6.8
		C1201.3,560,1200.4,556.5,1199.9,553.6z"/>
	<path class="st13" d="M1334.8,585.7c4.5,6.4,8.9,12.8,13.4,19.1c-32.8,1.8-65.6,3.6-98.3,5.4l-38.3,2.5l-9.2-7.8l-5.8-9.5
		L1334.8,585.7z"/>
	<polygon class="st15" points="1348.3,604.9 1334.8,585.7 1349.7,566.9 1362.4,585 	"/>
	<path class="st8" d="M1254.3,609.5l68.8,73.2l24.1-3l12.3,4.1l19,1.8l188.7-12.1l20.9-3.7l70-0.7l7.7,2.5l15-9.1l22.5-2.1l12.3-7.5
		l-9.3-38l22.3-43.9l10.1,1.9l9.7-19.2l30.8,25.8l8,1.4l10.2-5.3l-5.3-35.1l-0.5-18.4l-15-24.7l0.6-9.3l4.6-18.8l21.7-64l-5.7-35.8
		l17.7-38.4l10.6,4.3l10-15.9l-13.8-72.7l-15.8-25.9l-23.2,2.6c-37.8,101.1-75.5,202.2-113.3,303.2c-6,7.1-12,14.2-18,21.4
		l-302.1,18.2l12.6,18.2l-14.1,19.9L1254.3,609.5z"/>
	<path class="st6" d="M1674.7,514.1l17.9,0.8l-7.3,21.4l-6,16.7l-11.3,10.4l-20,6.8l-35.7,2.4l-4-6.5l-88.2,5.2
		c0.5-5.3,1.1-10.7,1.6-16c43.2-2.9,86.5-5.8,129.7-8.7c4.9-5.2,9.7-10.3,14.6-15.5L1674.7,514.1z"/>
	<polygon class="st13" points="1520.1,571.3 1530.4,594.1 1644.6,589.5 1675.3,583.3 1692.7,568 1700.5,543.7 1701.2,529 
		1692.6,514.9 1679.3,553 1668,563.4 1612.3,572.6 1608.3,566.1 	"/>
	<path class="st6" d="M1785.8,158.3c3.2-0.9,5.8-1.1,7.5-1c1.2,0,2,0.1,4.6,0.3c2.5,0.2,4.6,0.3,5.9,0.3c1.4,0.3,2.8,0.7,4.2,1.1
		c3.6,1.1,6.8,2.3,9.6,3.7c0.7,0.4,3.7,2.3,4.7,6.1c0.8,2.9,0.1,5.3-0.2,6.3c-3.6,7.1-7.1,14.3-10.7,21.4l-1.6,3.4l-20.8,5.9
		c2.4-11.4,4.8-22.7,7.2-34.1C1792.8,167.2,1789.3,162.7,1785.8,158.3z"/>
	<polygon class="st10" points="1748.3,315.8 1776.3,370.1 1787.5,415.5 1750.5,511 1742.6,477.4 1708.5,422 	"/>
	<path class="st10" d="M1350.7,568.4l1.8,2.9l50.3,80.4l17.2,18l12.9-1.5l2.8-4.9l-11.6-19.2l16.4-2.4l3.2-1.9l-5.1-21l55.3-6.4
		l5.4,15.4l1.3,3.7l35.3,6.7l25.3,23.3l19.9-3.1l-33.8-65l-18.3-1.5l-8.9-20.6c0.5-5.3,1.1-10.7,1.6-16
		c-58.3,3.3-116.5,6.5-174.8,9.8"/>
	<polygon class="st10" points="1778.9,233.5 1761.9,280.7 1794.7,359.9 1809.9,326.5 	"/>
	<polygon class="st16" points="1382.6,166 1433.4,246.3 1476.1,244 1423.9,163.6 	"/>
	<path class="st17" d="M1360.9,585c-4.9,7.2-9.7,14.3-14.6,21.5c-29.1,2.7-58.3,5.4-87.4,8.1l-5.2-5.5l94.2-5.1L1360.9,585z"/>
	<path class="st18" d="M1547.3,593.4l99.6-0.4l28.5-6.2l19.1-16.1l8.7-26.7c-0.7-5-1.4-10-2.1-15c-2.2-3.8-4.5-7.6-6.7-11.4
		c-0.6-0.9-1.2-1.8-1.8-2.7l-5.9,16.6l-8.5,23.1l-11.7,9l-54.2,9L1547.3,593.4z"/>
	<polygon class="st10" points="1416.8,113.5 1426.9,130.3 1408.8,131.6 	"/>
	<path class="st13" d="M1664.5,516.5c1.1,1.6,2.5,4.2,3.1,7.6c0.2,1.2,0.3,2.3,0.3,3.3c-13.7-11.2-27.5-22.3-41.2-33.5
		c3.2-1.6,7.9-4.3,12.3-8.9c3.1-3.2,5.2-6.5,6.6-9.1C1651.9,489.5,1658.2,503,1664.5,516.5z"/>
</g>
</svg>
