<svg xmlns="http://www.w3.org/2000/svg" viewBox="0 0 651.4 651.4"><defs><style>.cls-1{fill:#1a1a1a;}.cls-2{fill:none;stroke:#1a1a1a;stroke-miterlimit:10;stroke-width:40px;}</style></defs><g id="Capa_2" data-name="Capa 2"><g id="Capa_1-2" data-name="Capa 1"><path class="cls-1" d="M383.06,398.51c4.09,2.43,6.43,3.9,8.84,5.23,17.18,9.5,24.8,24.55,25.18,43.67.4,20.27,1.39,40.56.6,60.79-.49,12.53,5.32,19.95,14.44,26.55,2.33,1.7,3.81,4.58,5.69,6.92-3.14,1.42-6.31,4.09-9.41,4a57.42,57.42,0,0,1-17.69-3.11c-13.43-4.83-19.07-13.31-19.16-27.61-.13-19.34.09-38.68-.11-58-.1-9.93-5-15.65-14.49-17.19,0,9.6,0,19.09,0,28.58q0,25.86.11,51.72c0,9.45,1.37,18.5,7.43,26.35,1.75,2.28,2.45,5.36,3.66,8.12-10.49,3.67-28-3.22-32.88-14.37A86.18,86.18,0,0,1,348,510.78c-1.08-21.15-.34-42.39-.34-63.59V435.62H331.59v7.27c0,22.37.37,44.75-.17,67.1a91,91,0,0,1-4.12,23.89C323,548,310.19,556.81,295.6,556.77c-1.51,0-3-.77-4.74-1.23,3-6.92,6.37-13.24,8.55-19.93a55.52,55.52,0,0,0,2.76-16.41c.28-25.16.13-50.32.1-75.49a37.3,37.3,0,0,0-.42-4c-8.72,1.9-12.47,6.82-12.53,16.71-.12,19.11-.06,38.21-.07,57.32,0,21.3-21.42,37.59-41.9,31.68a8.23,8.23,0,0,1-4.89-4.27c-.44-1.14,1.42-3.62,2.8-4.92,2.18-2,4.89-3.54,7.27-5.4,6.6-5.16,10.44-11.78,10.45-20.34,0-13.7,0-27.4,0-41.37-3,0-4.13-.18-5.18,0-34.09,6.69-58.9-4-76.22-34.28-7.92-13.83-18.13-25.26-30.06-35.47-5.4-4.62-5.17-8.4,1.72-10,4.79-1.13,11.2-.88,15.24,1.52,7.23,4.3,13.43,10.46,19.66,16.27,7.62,7.12,14.11,15.64,22.38,21.84,14.61,11,30.88,12.55,47.2,3.43a23.84,23.84,0,0,0,8.55-9.12c4.89-8.91,11.29-15.87,20.75-19.84,3.16-1.33,6.31-2.68,11-4.66-14.26-2.58-27-4.33-39.46-7.24-25.16-5.87-48.36-15.89-65.48-36.17-17.94-21.26-22.51-47-23-73.82-.49-28.11,5.63-54.05,24.67-75.88,1.44-1.65,1.71-5.21,1.14-7.55-4.77-19.64-2.22-38.77,2.8-58,1.67-6.37,4.82-7.21,10.51-6.39a133.77,133.77,0,0,1,58,22.65c2.5,1.73,6.52,2.88,9.36,2.23a274,274,0,0,1,117.82-.82c2.73.57,6.41-.55,8.9-2.1,18.37-11.44,37.43-20.71,59.54-22.19,4.87-.32,7.51.41,8.87,5.79,4.56,18,7.22,36,3.93,54.56-.42,2.42-.06,5.9,1.42,7.61,24.76,28.64,29,62.55,25.65,98.45C497,359.8,453,389.44,401.37,396.13Z"/><circle class="cls-2" cx="325.7" cy="325.7" r="305.7"/></g></g></svg>