<svg xmlns="http://www.w3.org/2000/svg" viewBox="0 0 587.74 587.77"><defs><style>.cls-1{fill:#1a1a1a;}</style></defs><g id="Capa_2" data-name="Capa 2"><g id="Capa_1-2" data-name="Capa 1"><path class="cls-1" d="M587.71,294.11c0,47.11.08,94.23,0,141.34-.17,84.64-67.76,152.15-152.5,152.24q-141.35.15-282.69,0A152.19,152.19,0,0,1,.1,435.18Q-.09,293.83.1,152.49A152.53,152.53,0,0,1,152.75.1Q294.09-.09,435.44.1A152.27,152.27,0,0,1,587.7,152.76Q587.82,223.44,587.71,294.11Zm-537,.24q0,69,0,137.94c0,6.55-.23,13.26,1,19.63,10,52.42,50.65,86,103.82,86q138.8.07,277.6,0c60.33,0,104.77-44.57,104.8-105,0-92.25-.71-184.5.27-276.74C538.85,96,489.71,49.64,432.94,50.37c-92.52,1.19-185.06.3-277.6.36-6.27,0-12.64-.07-18.78,1-53.31,9-87.27,55.74-86.11,103.85C51.56,201.79,50.69,248.08,50.69,294.35Z"/><path class="cls-1" d="M294.55,148.12A146.12,146.12,0,1,1,148.11,293.59,145.8,145.8,0,0,1,294.55,148.12Zm-.34,44.79c-56.59.05-101.4,45-101.3,101.64a101.47,101.47,0,1,0,101.3-101.64Z"/><path class="cls-1" d="M490.12,131.56a33.38,33.38,0,0,1-33.59,33.68,33.78,33.78,0,1,1,33.59-33.68Z"/></g></g></svg>