<?xml version="1.0" encoding="utf-8"?>
<!-- Generator: Adobe Illustrator 26.0.0, SVG Export Plug-In . SVG Version: 6.00 Build 0)  -->
<svg version="1.1" id="Capa_1" xmlns="http://www.w3.org/2000/svg" xmlns:xlink="http://www.w3.org/1999/xlink" x="0px" y="0px"
	 viewBox="0 0 1920 1080" style="enable-background:new 0 0 1920 1080;" xml:space="preserve">
<style type="text/css">
	.st0{fill:#F15A24;}
	.st1{display:none;}
	.st2{display:inline;fill:#1A1A1A;}
	.st3{display:inline;}
	.st4{fill:#1A1A1A;}
	.st5{display:inline;fill:#333333;}
	.st6{fill:#DBD6B9;}
	.st7{fill:#ADA88A;}
	.st8{fill:#CCCCCC;}
	.st9{fill:#333333;}
</style>
<path class="st0" d="M848.2,435.6"/>
<g class="st1">
	
		<rect x="1567.5" y="-43.2" transform="matrix(0.5909 -0.8067 0.8067 0.5909 233.2609 1724.9189)" class="st2" width="500" height="1351.4"/>
	<g class="st3">
		<g>
			<g>
				<path class="st4" d="M1431.2,513.5l-61-44.7c-1.2-0.9-1.4-2.5-0.6-3.7l44.7-61c0.9-1.2,2.5-1.4,3.7-0.6l61,44.7
					c1.2,0.9,1.4,2.5,0.6,3.7l-44.7,61C1434,514.1,1432.3,514.4,1431.2,513.5z"/>
			</g>
			<g>
				<path class="st4" d="M1500.4,564.2l-61-44.7c-1.2-0.9-1.4-2.5-0.6-3.7l44.7-61c0.9-1.2,2.5-1.4,3.7-0.6l61,44.7
					c1.2,0.9,1.4,2.5,0.6,3.7l-44.7,61C1503.3,564.9,1501.6,565.1,1500.4,564.2z"/>
			</g>
			<g>
				<path class="st4" d="M1571.3,616.2l-61-44.7c-1.2-0.9-1.4-2.5-0.6-3.7l44.7-61c0.9-1.2,2.5-1.4,3.7-0.6l61,44.7
					c1.2,0.9,1.4,2.5,0.6,3.7l-44.7,61C1574.2,616.8,1572.5,617,1571.3,616.2z"/>
			</g>
			<g>
				<path class="st4" d="M1642,667.1l-61-44.7c-1.2-0.9-1.4-2.5-0.6-3.7l44.7-61c0.9-1.2,2.5-1.4,3.7-0.6l61,44.7
					c1.2,0.9,1.4,2.5,0.6,3.7l-44.7,61C1644.9,667.7,1643.2,667.9,1642,667.1z"/>
			</g>
			<g>
				<path class="st4" d="M1712,718.3l-61-44.7c-1.2-0.9-1.4-2.5-0.6-3.7l44.7-61c0.9-1.2,2.5-1.4,3.7-0.6l61,44.7
					c1.2,0.9,1.4,2.5,0.6,3.7l-44.7,61C1714.9,718.9,1713.2,719.2,1712,718.3z"/>
			</g>
			<g>
				<path class="st4" d="M1782,769.6l-61-44.7c-1.2-0.9-1.4-2.5-0.6-3.7l44.7-61c0.9-1.2,2.5-1.4,3.7-0.6l61,44.7
					c1.2,0.9,1.4,2.5,0.6,3.7l-44.7,61C1784.9,770.2,1783.2,770.5,1782,769.6z"/>
			</g>
			<g>
				<path class="st4" d="M1852,820.9l-61-44.7c-1.2-0.9-1.4-2.5-0.6-3.7l44.7-61c0.9-1.2,2.5-1.4,3.7-0.6l61,44.7
					c1.2,0.9,1.4,2.5,0.6,3.7l-44.7,61C1854.8,821.5,1853.2,821.7,1852,820.9z"/>
			</g>
			<g>
				<path class="st4" d="M1921.5,871.7l-61-44.7c-1.2-0.9-1.4-2.5-0.6-3.7l44.7-61c0.9-1.2,2.5-1.4,3.7-0.6l61,44.7
					c1.2,0.9,1.4,2.5,0.6,3.7l-44.7,61C1924.3,872.3,1922.6,872.6,1921.5,871.7z"/>
			</g>
			<g>
				<path class="st4" d="M1992.2,923.6l-61-44.7c-1.2-0.9-1.4-2.5-0.6-3.7l44.7-61c0.9-1.2,2.5-1.4,3.7-0.6l61,44.7
					c1.2,0.9,1.4,2.5,0.6,3.7l-44.7,61C1995.1,924.2,1993.4,924.4,1992.2,923.6z"/>
			</g>
			<g>
				<path class="st4" d="M2062,974.7l-61-44.7c-1.2-0.9-1.4-2.5-0.6-3.7l44.7-61c0.9-1.2,2.5-1.4,3.7-0.6l61,44.7
					c1.2,0.9,1.4,2.5,0.6,3.7l-44.7,61C2064.9,975.3,2063.2,975.6,2062,974.7z"/>
			</g>
			<g>
				<path class="st4" d="M1448,417.7l-61-44.7c-1.2-0.9-1.4-2.5-0.6-3.7l45.5-62.2c0.9-1.2,2.5-1.4,3.7-0.6l61,44.7
					c1.2,0.9,1.4,2.5,0.6,3.7l-45.5,62.2C1450.9,418.3,1449.2,418.6,1448,417.7z"/>
			</g>
			<g>
				<path class="st4" d="M1518.9,469.3l-61-44.7c-1.2-0.9-1.4-2.5-0.6-3.7l45.4-61.9c0.9-1.2,2.5-1.4,3.7-0.6l61,44.7
					c1.2,0.9,1.4,2.5,0.6,3.7l-45.4,61.9C1521.8,469.9,1520.1,470.1,1518.9,469.3z"/>
			</g>
			<g>
				<path class="st4" d="M1587.9,519.8l-61-44.7c-1.2-0.9-1.4-2.5-0.6-3.7l45.4-61.9c0.9-1.2,2.5-1.4,3.7-0.6l61,44.7
					c1.2,0.9,1.4,2.5,0.6,3.7l-45.4,61.9C1590.8,520.4,1589.1,520.7,1587.9,519.8z"/>
			</g>
			<g>
				<path class="st4" d="M1657.6,570.8l-61-44.7c-1.2-0.9-1.4-2.5-0.6-3.7l45.4-61.9c0.9-1.2,2.5-1.4,3.7-0.6l61,44.7
					c1.2,0.9,1.4,2.5,0.6,3.7l-45.4,61.9C1660.4,571.4,1658.7,571.7,1657.6,570.8z"/>
			</g>
			<g>
				<path class="st4" d="M1728.3,622.7l-61-44.7c-1.2-0.9-1.4-2.5-0.6-3.7l45.4-61.9c0.9-1.2,2.5-1.4,3.7-0.6l61,44.7
					c1.2,0.9,1.4,2.5,0.6,3.7l-45.4,61.9C1731.2,623.3,1729.5,623.5,1728.3,622.7z"/>
			</g>
			<g>
				<path class="st4" d="M1798.6,674.1l-61-44.7c-1.2-0.9-1.4-2.5-0.6-3.7l45.4-61.9c0.9-1.2,2.5-1.4,3.7-0.6l61,44.7
					c1.2,0.9,1.4,2.5,0.6,3.7l-45.4,61.9C1801.4,674.7,1799.8,675,1798.6,674.1z"/>
			</g>
			<g>
				<path class="st4" d="M1870.3,726.6l-61-44.7c-1.2-0.9-1.4-2.5-0.6-3.7l45.4-61.9c0.9-1.2,2.5-1.4,3.7-0.6l61,44.7
					c1.2,0.9,1.4,2.5,0.6,3.7L1874,726C1873.1,727.2,1871.5,727.5,1870.3,726.6z"/>
			</g>
			<g>
				<path class="st4" d="M1940.6,778.1l-61-44.7c-1.2-0.9-1.4-2.5-0.6-3.7l45.4-61.9c0.9-1.2,2.5-1.4,3.7-0.6l61,44.7
					c1.2,0.9,1.4,2.5,0.6,3.7l-45.4,61.9C1943.5,778.8,1941.8,779,1940.6,778.1z"/>
			</g>
			<g>
				<path class="st4" d="M2010.5,830.7l-61-44.7c-1.2-0.9-1.4-2.5-0.6-3.7l46-62.8c0.9-1.2,2.5-1.4,3.7-0.6l61,44.7
					c1.2,0.9,1.4,2.5,0.6,3.7l-46,62.8C2013.4,831.3,2011.7,831.6,2010.5,830.7z"/>
			</g>
			<g>
				<path class="st4" d="M2080,881.6l-61-44.7c-1.2-0.9-1.4-2.5-0.6-3.7l46-62.8c0.9-1.2,2.5-1.4,3.7-0.6l61,44.7
					c1.2,0.9,1.4,2.5,0.6,3.7l-46,62.8C2082.9,882.2,2081.2,882.5,2080,881.6z"/>
			</g>
			<g>
				<path class="st4" d="M2149.5,932.5l-61-44.7c-1.2-0.9-1.4-2.5-0.6-3.7l46-62.8c0.9-1.2,2.5-1.4,3.7-0.6l61,44.7
					c1.2,0.9,1.4,2.5,0.6,3.7l-46,62.8C2152.4,933.1,2150.7,933.4,2149.5,932.5z"/>
			</g>
			<g>
				<path class="st4" d="M1482.5,333.4l-61-44.7c-1.2-0.9-1.4-2.5-0.6-3.7l46.4-63.3c0.9-1.2,2.5-1.4,3.7-0.6l61,44.7
					c1.2,0.9,1.4,2.5,0.6,3.7l-46.4,63.3C1485.4,334,1483.7,334.2,1482.5,333.4z"/>
			</g>
			<g>
				<path class="st4" d="M1552.4,383.7l-61-44.7c-1.2-0.9-1.4-2.5-0.6-3.7l46-62.8c0.9-1.2,2.5-1.4,3.7-0.6l61,44.7
					c1.2,0.9,1.4,2.5,0.6,3.7l-46,62.8C1555.3,384.3,1553.6,384.6,1552.4,383.7z"/>
			</g>
			<g>
				<path class="st4" d="M1623,435.4l-61-44.7c-1.2-0.9-1.4-2.5-0.6-3.7l46-62.8c0.9-1.2,2.5-1.4,3.7-0.6l61,44.7
					c1.2,0.9,1.4,2.5,0.6,3.7l-46,62.8C1625.8,436,1624.1,436.2,1623,435.4z"/>
			</g>
			<g>
				<path class="st4" d="M1693.4,486.9l-61-44.7c-1.2-0.9-1.4-2.5-0.6-3.7l45.5-62.2c0.9-1.2,2.5-1.4,3.7-0.6l61,44.7
					c1.2,0.9,1.4,2.5,0.6,3.7l-45.5,62.2C1696.2,487.5,1694.5,487.8,1693.4,486.9z"/>
			</g>
			<g>
				<path class="st4" d="M1763.7,538.5l-61-44.7c-1.2-0.9-1.4-2.5-0.6-3.7l45.5-62.2c0.9-1.2,2.5-1.4,3.7-0.6l61,44.7
					c1.2,0.9,1.4,2.5,0.6,3.7l-45.5,62.2C1766.6,539.1,1764.9,539.3,1763.7,538.5z"/>
			</g>
			<g>
				<path class="st4" d="M1834.4,590.2l-61-44.7c-1.2-0.9-1.4-2.5-0.6-3.7l45.5-62.2c0.9-1.2,2.5-1.4,3.7-0.6l61,44.7
					c1.2,0.9,1.4,2.5,0.6,3.7l-45.5,62.2C1837.2,590.8,1835.6,591.1,1834.4,590.2z"/>
			</g>
			<g>
				<path class="st4" d="M1904.6,641.6l-61-44.7c-1.2-0.9-1.4-2.5-0.6-3.7l45.5-62.2c0.9-1.2,2.5-1.4,3.7-0.6l61,44.7
					c1.2,0.9,1.4,2.5,0.6,3.7l-45.5,62.2C1907.4,642.2,1905.8,642.5,1904.6,641.6z"/>
			</g>
			<g>
				<path class="st4" d="M1974.8,693l-61-44.7c-1.2-0.9-1.4-2.5-0.6-3.7l45.5-62.2c0.9-1.2,2.5-1.4,3.7-0.6l61,44.7
					c1.2,0.9,1.4,2.5,0.6,3.7l-45.5,62.2C1977.6,693.7,1976,693.9,1974.8,693z"/>
			</g>
			<g>
				<path class="st4" d="M2044.4,744l-61-44.7c-1.2-0.9-1.4-2.5-0.6-3.7l45.5-62.2c0.9-1.2,2.5-1.4,3.7-0.6l61,44.7
					c1.2,0.9,1.4,2.5,0.6,3.7l-45.5,62.2C2047.2,744.6,2045.5,744.9,2044.4,744z"/>
			</g>
			<g>
				<path class="st4" d="M2113.3,794.5l-61-44.7c-1.2-0.9-1.4-2.5-0.6-3.7l45.5-62.2c0.9-1.2,2.5-1.4,3.7-0.6l61,44.7
					c1.2,0.9,1.4,2.5,0.6,3.7l-45.5,62.2C2116.2,795.1,2114.5,795.4,2113.3,794.5z"/>
			</g>
			<g>
				<path class="st4" d="M2182.3,845.1l-61-44.7c-1.2-0.9-1.4-2.5-0.6-3.7l45.5-62.2c0.9-1.2,2.5-1.4,3.7-0.6l61,44.7
					c1.2,0.9,1.4,2.5,0.6,3.7l-45.5,62.2C2185.2,845.7,2183.5,845.9,2182.3,845.1z"/>
			</g>
			<g>
				<path class="st4" d="M2253.9,897.5l-61-44.7c-1.2-0.9-1.4-2.5-0.6-3.7l45.5-62.2c0.9-1.2,2.5-1.4,3.7-0.6l61,44.7
					c1.2,0.9,1.4,2.5,0.6,3.7l-45.5,62.2C2256.8,898.1,2255.1,898.4,2253.9,897.5z"/>
			</g>
			<g>
				<path class="st4" d="M1429.8,186.6l-60.7-44.4c-1.2-0.9-1.4-2.5-0.6-3.7l46.4-63.3c0.9-1.2,2.5-1.4,3.7-0.6l60.7,44.4
					c1.2,0.9,1.4,2.5,0.6,3.7l-46.4,63.3C1432.6,187.2,1431,187.5,1429.8,186.6z"/>
			</g>
			<g>
				<path class="st4" d="M1501.5,239.1l-62.5-45.8c-1.2-0.9-1.4-2.5-0.6-3.7l46.4-63.3c0.9-1.2,2.5-1.4,3.7-0.6l62.5,45.8
					c1.2,0.9,1.4,2.5,0.6,3.7l-46.4,63.3C1504.3,239.7,1502.6,240,1501.5,239.1z"/>
			</g>
			<g>
				<path class="st4" d="M1573.1,291.6l-62.5-45.8c-1.2-0.9-1.4-2.5-0.6-3.7l46.4-63.3c0.9-1.2,2.5-1.4,3.7-0.6l62.5,45.8
					c1.2,0.9,1.4,2.5,0.6,3.7l-46.4,63.3C1575.9,292.2,1574.3,292.5,1573.1,291.6z"/>
			</g>
			<g>
				<path class="st4" d="M1643.4,343l-62.5-45.8c-1.2-0.9-1.4-2.5-0.6-3.7l46.4-63.3c0.9-1.2,2.5-1.4,3.7-0.6l62.5,45.8
					c1.2,0.9,1.4,2.5,0.6,3.7l-46.4,63.3C1646.2,343.7,1644.5,343.9,1643.4,343z"/>
			</g>
			<g>
				<path class="st4" d="M1713.6,394.5l-62.5-45.8c-1.2-0.9-1.4-2.5-0.6-3.7l46.4-63.3c0.9-1.2,2.5-1.4,3.7-0.6l62.5,45.8
					c1.2,0.9,1.4,2.5,0.6,3.7l-46.4,63.3C1716.5,395.1,1714.8,395.4,1713.6,394.5z"/>
			</g>
			<g>
				<path class="st4" d="M1783.6,445.8l-62.5-45.8c-1.2-0.9-1.4-2.5-0.6-3.7l46.4-63.3c0.9-1.2,2.5-1.4,3.7-0.6l62.5,45.8
					c1.2,0.9,1.4,2.5,0.6,3.7l-46.4,63.3C1786.4,446.4,1784.8,446.6,1783.6,445.8z"/>
			</g>
			<g>
				<path class="st4" d="M1855,498.1l-62.5-45.8c-1.2-0.9-1.4-2.5-0.6-3.7l46.4-63.3c0.9-1.2,2.5-1.4,3.7-0.6l62.5,45.8
					c1.2,0.9,1.4,2.5,0.6,3.7l-46.4,63.3C1857.9,498.7,1856.2,498.9,1855,498.1z"/>
			</g>
			<g>
				<path class="st4" d="M1925.4,549.6l-62.5-45.8c-1.2-0.9-1.4-2.5-0.6-3.7l46.4-63.3c0.9-1.2,2.5-1.4,3.7-0.6l62.5,45.8
					c1.2,0.9,1.4,2.5,0.6,3.7l-46.4,63.3C1928.2,550.2,1926.5,550.5,1925.4,549.6z"/>
			</g>
			<g>
				<path class="st4" d="M1996.2,601.5l-62.5-45.8c-1.2-0.9-1.4-2.5-0.6-3.7l46.4-63.3c0.9-1.2,2.5-1.4,3.7-0.6l62.5,45.8
					c1.2,0.9,1.4,2.5,0.6,3.7l-46.4,63.3C1999,602.1,1997.3,602.3,1996.2,601.5z"/>
			</g>
			<g>
				<path class="st4" d="M2065.9,652.5l-62.5-45.8c-1.2-0.9-1.4-2.5-0.6-3.7l46.4-63.3c0.9-1.2,2.5-1.4,3.7-0.6l62.5,45.8
					c1.2,0.9,1.4,2.5,0.6,3.7l-46.4,63.3C2068.7,653.1,2067.1,653.4,2065.9,652.5z"/>
			</g>
			<g>
				<path class="st4" d="M2136.6,704.3l-62.5-45.8c-1.2-0.9-1.4-2.5-0.6-3.7l46.4-63.3c0.9-1.2,2.5-1.4,3.7-0.6l62.5,45.8
					c1.2,0.9,1.4,2.5,0.6,3.7l-46.4,63.3C2139.4,704.9,2137.8,705.2,2136.6,704.3z"/>
			</g>
			<g>
				<path class="st4" d="M2207.3,756.1l-62.5-45.8c-1.2-0.9-1.4-2.5-0.6-3.7l46.4-63.3c0.9-1.2,2.5-1.4,3.7-0.6l62.5,45.8
					c1.2,0.9,1.4,2.5,0.6,3.7l-46.4,63.3C2210.1,756.7,2208.5,757,2207.3,756.1z"/>
			</g>
			<g>
				<path class="st4" d="M2277.6,807.6l-62.5-45.8c-1.2-0.9-1.4-2.5-0.6-3.7l46.4-63.3c0.9-1.2,2.5-1.4,3.7-0.6l62.5,45.8
					c1.2,0.9,1.4,2.5,0.6,3.7l-46.4,63.3C2280.5,808.2,2278.8,808.5,2277.6,807.6z"/>
			</g>
			<g>
				<path class="st4" d="M1864.4,938l-436.7-319.9c-1.2-0.9-1.4-2.5-0.6-3.7l44.7-61c0.9-1.2,2.5-1.4,3.7-0.6l436.7,319.9
					c1.2,0.9,1.4,2.5,0.6,3.7l-44.7,61C1867.2,938.6,1865.5,938.9,1864.4,938z"/>
			</g>
		</g>
	</g>
	<g class="st3">
		<path class="st4" d="M1361.9,462.8l-147.5-108.1c-1.2-0.9-1.4-2.5-0.6-3.7l44.7-61c0.9-1.2,2.5-1.4,3.7-0.6l147.5,108.1
			c1.2,0.9,1.4,2.5,0.6,3.7l-44.7,61C1364.7,463.4,1363.1,463.6,1361.9,462.8z"/>
		<path class="st4" d="M2257.9,1118.2l-185.3-135.7c-1.2-0.9-1.4-2.5-0.6-3.7l44.7-61c0.9-1.2,2.5-1.4,3.7-0.6l185.3,135.7
			c1.2,0.9,1.4,2.5,0.6,3.7l-44.7,61C2260.8,1118.8,2259.1,1119.1,2257.9,1118.2z"/>
		<path class="st4" d="M1378.2,364.8l-112-82c-1.2-0.9-1.4-2.5-0.6-3.7l44.7-61c0.9-1.2,2.5-1.4,3.7-0.6l112,82
			c1.2,0.9,1.4,2.5,0.6,3.7l-44.7,61C1381,365.4,1379.4,365.6,1378.2,364.8z"/>
		<path class="st4" d="M2309.9,1047.2l-149.8-109.7c-1.2-0.9-1.4-2.5-0.6-3.7l44.7-61c0.9-1.2,2.5-1.4,3.7-0.6l149.8,109.7
			c1.2,0.9,1.4,2.5,0.6,3.7l-44.7,61C2312.7,1047.8,2311.1,1048.1,2309.9,1047.2z"/>
		<path class="st4" d="M1411.8,281.6l-94.2-69c-1.2-0.9-1.4-2.5-0.6-3.7l46.4-63.3c0.9-1.2,2.5-1.4,3.7-0.6l94.2,69
			c1.2,0.9,1.4,2.5,0.6,3.7l-46.4,63.3C1414.7,282.2,1413,282.4,1411.8,281.6z"/>
		<path class="st4" d="M2361.7,976.5l-98.6-72.2c-1.2-0.9-1.4-2.5-0.6-3.7l45.5-62.2c0.9-1.2,2.5-1.4,3.7-0.6l98.6,72.2
			c1.2,0.9,1.4,2.5,0.6,3.7l-45.5,62.2C2364.6,977.1,2362.9,977.3,2361.7,976.5z"/>
		<path class="st4" d="M2412.9,906.7l-126.5-92.6c-1.2-0.9-1.4-2.5-0.6-3.7l46.4-63.3c0.9-1.2,2.5-1.4,3.7-0.6l126.5,92.6
			c1.2,0.9,1.4,2.5,0.6,3.7l-46.4,63.3C2415.7,907.3,2414,907.5,2412.9,906.7z"/>
		<path class="st4" d="M1241.6,481.8l-78.3-57.4c-1.2-0.9-1.4-2.5-0.6-3.7l44.7-61c0.9-1.2,2.5-1.4,3.7-0.6l78.3,57.4
			c1.2,0.9,1.4,2.5,0.6,3.7l-44.7,61C1244.4,482.4,1242.8,482.7,1241.6,481.8z"/>
		<path class="st4" d="M1329.6,546.3l-79.4-58.2c-1.2-0.9-1.4-2.5-0.6-3.7l44.7-61c0.9-1.2,2.5-1.4,3.7-0.6l79.4,58.2
			c1.2,0.9,1.4,2.5,0.6,3.7l-44.7,61C1332.4,546.9,1330.8,547.2,1329.6,546.3z"/>
		<path class="st4" d="M1418.3,611.3l-79.4-58.2c-1.2-0.9-1.4-2.5-0.6-3.7l44.7-61c0.9-1.2,2.5-1.4,3.7-0.6l79.4,58.2
			c1.2,0.9,1.4,2.5,0.6,3.7l-44.7,61C1421.2,611.9,1419.5,612.2,1418.3,611.3z"/>
		<path class="st4" d="M1950.2,1000.9l-76-55.7c-1.2-0.9-1.4-2.5-0.6-3.7l44.7-61c0.9-1.2,2.5-1.4,3.7-0.6l76,55.7
			c1.2,0.9,1.4,2.5,0.6,3.7l-44.7,61C1953,1001.5,1951.4,1001.7,1950.2,1000.9z"/>
		<path class="st4" d="M2034.8,1062.8l-76.6-56.1c-1.2-0.9-1.4-2.5-0.6-3.7l44.7-61c0.9-1.2,2.5-1.4,3.7-0.6l76.6,56.1
			c1.2,0.9,1.4,2.5,0.6,3.7l-44.7,61C2037.6,1063.4,2036,1063.7,2034.8,1062.8z"/>
		<path class="st4" d="M2119.3,1124.8l-76.6-56.1c-1.2-0.9-1.4-2.5-0.6-3.7l44.7-61c0.9-1.2,2.5-1.4,3.7-0.6l76.6,56.1
			c1.2,0.9,1.4,2.5,0.6,3.7l-44.7,61C2122.2,1125.4,2120.5,1125.6,2119.3,1124.8z"/>
		<path class="st4" d="M2204.8,1187.3l-76.6-56.1c-1.2-0.9-1.4-2.5-0.6-3.7l44.7-61c0.9-1.2,2.5-1.4,3.7-0.6l76.6,56.1
			c1.2,0.9,1.4,2.5,0.6,3.7l-44.7,61C2207.6,1188,2206,1188.2,2204.8,1187.3z"/>
	</g>
	<polygon class="st2" points="2510.5,830 2518.7,904.3 2231.8,1301.7 2215,1233.4 	"/>
	<polygon class="st2" points="2231.8,1301.7 1145.7,501.4 1124.7,434.9 2215,1233.4 	"/>
</g>
<g class="st1">
	
		<rect x="1567.5" y="-43.2" transform="matrix(0.5909 -0.8067 0.8067 0.5909 233.261 1724.9196)" class="st5" width="500" height="1351.4"/>
	<g class="st3">
		<g>
			<g>
				<path class="st6" d="M1431.2,513.5l-61-44.7c-1.2-0.9-1.4-2.5-0.6-3.7l44.7-61c0.9-1.2,2.5-1.4,3.7-0.6l61,44.7
					c1.2,0.9,1.4,2.5,0.6,3.7l-44.7,61C1434,514.1,1432.3,514.4,1431.2,513.5z"/>
			</g>
			<g>
				<path class="st6" d="M1500.4,564.2l-61-44.7c-1.2-0.9-1.4-2.5-0.6-3.7l44.7-61c0.9-1.2,2.5-1.4,3.7-0.6l61,44.7
					c1.2,0.9,1.4,2.5,0.6,3.7l-44.7,61C1503.3,564.9,1501.6,565.1,1500.4,564.2z"/>
			</g>
			<g>
				<path class="st6" d="M1571.3,616.2l-61-44.7c-1.2-0.9-1.4-2.5-0.6-3.7l44.7-61c0.9-1.2,2.5-1.4,3.7-0.6l61,44.7
					c1.2,0.9,1.4,2.5,0.6,3.7l-44.7,61C1574.2,616.8,1572.5,617,1571.3,616.2z"/>
			</g>
			<g>
				<path class="st6" d="M1642,667.1l-61-44.7c-1.2-0.9-1.4-2.5-0.6-3.7l44.7-61c0.9-1.2,2.5-1.4,3.7-0.6l61,44.7
					c1.2,0.9,1.4,2.5,0.6,3.7l-44.7,61C1644.9,667.7,1643.2,667.9,1642,667.1z"/>
			</g>
			<g>
				<path class="st6" d="M1712,718.3l-61-44.7c-1.2-0.9-1.4-2.5-0.6-3.7l44.7-61c0.9-1.2,2.5-1.4,3.7-0.6l61,44.7
					c1.2,0.9,1.4,2.5,0.6,3.7l-44.7,61C1714.9,718.9,1713.2,719.2,1712,718.3z"/>
			</g>
			<g>
				<path class="st6" d="M1782,769.6l-61-44.7c-1.2-0.9-1.4-2.5-0.6-3.7l44.7-61c0.9-1.2,2.5-1.4,3.7-0.6l61,44.7
					c1.2,0.9,1.4,2.5,0.6,3.7l-44.7,61C1784.9,770.2,1783.2,770.5,1782,769.6z"/>
			</g>
			<g>
				<path class="st6" d="M1852,820.9l-61-44.7c-1.2-0.9-1.4-2.5-0.6-3.7l44.7-61c0.9-1.2,2.5-1.4,3.7-0.6l61,44.7
					c1.2,0.9,1.4,2.5,0.6,3.7l-44.7,61C1854.8,821.5,1853.2,821.7,1852,820.9z"/>
			</g>
			<g>
				<path class="st6" d="M1921.5,871.7l-61-44.7c-1.2-0.9-1.4-2.5-0.6-3.7l44.7-61c0.9-1.2,2.5-1.4,3.7-0.6l61,44.7
					c1.2,0.9,1.4,2.5,0.6,3.7l-44.7,61C1924.3,872.3,1922.6,872.6,1921.5,871.7z"/>
			</g>
			<g>
				<path class="st6" d="M1992.2,923.6l-61-44.7c-1.2-0.9-1.4-2.5-0.6-3.7l44.7-61c0.9-1.2,2.5-1.4,3.7-0.6l61,44.7
					c1.2,0.9,1.4,2.5,0.6,3.7l-44.7,61C1995.1,924.2,1993.4,924.4,1992.2,923.6z"/>
			</g>
			<g>
				<path class="st6" d="M2062,974.7l-61-44.7c-1.2-0.9-1.4-2.5-0.6-3.7l44.7-61c0.9-1.2,2.5-1.4,3.7-0.6l61,44.7
					c1.2,0.9,1.4,2.5,0.6,3.7l-44.7,61C2064.9,975.3,2063.2,975.6,2062,974.7z"/>
			</g>
			<g>
				<path class="st6" d="M1448,417.7l-61-44.7c-1.2-0.9-1.4-2.5-0.6-3.7l45.5-62.2c0.9-1.2,2.5-1.4,3.7-0.6l61,44.7
					c1.2,0.9,1.4,2.5,0.6,3.7l-45.5,62.2C1450.9,418.3,1449.2,418.6,1448,417.7z"/>
			</g>
			<g>
				<path class="st6" d="M1518.9,469.3l-61-44.7c-1.2-0.9-1.4-2.5-0.6-3.7l45.4-61.9c0.9-1.2,2.5-1.4,3.7-0.6l61,44.7
					c1.2,0.9,1.4,2.5,0.6,3.7l-45.4,61.9C1521.8,469.9,1520.1,470.1,1518.9,469.3z"/>
			</g>
			<g>
				<path class="st6" d="M1587.9,519.8l-61-44.7c-1.2-0.9-1.4-2.5-0.6-3.7l45.4-61.9c0.9-1.2,2.5-1.4,3.7-0.6l61,44.7
					c1.2,0.9,1.4,2.5,0.6,3.7l-45.4,61.9C1590.8,520.4,1589.1,520.7,1587.9,519.8z"/>
			</g>
			<g>
				<path class="st6" d="M1657.6,570.8l-61-44.7c-1.2-0.9-1.4-2.5-0.6-3.7l45.4-61.9c0.9-1.2,2.5-1.4,3.7-0.6l61,44.7
					c1.2,0.9,1.4,2.5,0.6,3.7l-45.4,61.9C1660.4,571.4,1658.7,571.7,1657.6,570.8z"/>
			</g>
			<g>
				<path class="st6" d="M1728.3,622.7l-61-44.7c-1.2-0.9-1.4-2.5-0.6-3.7l45.4-61.9c0.9-1.2,2.5-1.4,3.7-0.6l61,44.7
					c1.2,0.9,1.4,2.5,0.6,3.7l-45.4,61.9C1731.2,623.3,1729.5,623.5,1728.3,622.7z"/>
			</g>
			<g>
				<path class="st6" d="M1798.6,674.1l-61-44.7c-1.2-0.9-1.4-2.5-0.6-3.7l45.4-61.9c0.9-1.2,2.5-1.4,3.7-0.6l61,44.7
					c1.2,0.9,1.4,2.5,0.6,3.7l-45.4,61.9C1801.4,674.7,1799.8,675,1798.6,674.1z"/>
			</g>
			<g>
				<path class="st6" d="M1870.3,726.6l-61-44.7c-1.2-0.9-1.4-2.5-0.6-3.7l45.4-61.9c0.9-1.2,2.5-1.4,3.7-0.6l61,44.7
					c1.2,0.9,1.4,2.5,0.6,3.7L1874,726C1873.1,727.2,1871.5,727.5,1870.3,726.6z"/>
			</g>
			<g>
				<path class="st6" d="M1940.6,778.1l-61-44.7c-1.2-0.9-1.4-2.5-0.6-3.7l45.4-61.9c0.9-1.2,2.5-1.4,3.7-0.6l61,44.7
					c1.2,0.9,1.4,2.5,0.6,3.7l-45.4,61.9C1943.5,778.8,1941.8,779,1940.6,778.1z"/>
			</g>
			<g>
				<path class="st6" d="M2010.5,830.7l-61-44.7c-1.2-0.9-1.4-2.5-0.6-3.7l46-62.8c0.9-1.2,2.5-1.4,3.7-0.6l61,44.7
					c1.2,0.9,1.4,2.5,0.6,3.7l-46,62.8C2013.4,831.3,2011.7,831.6,2010.5,830.7z"/>
			</g>
			<g>
				<path class="st6" d="M2080,881.6l-61-44.7c-1.2-0.9-1.4-2.5-0.6-3.7l46-62.8c0.9-1.2,2.5-1.4,3.7-0.6l61,44.7
					c1.2,0.9,1.4,2.5,0.6,3.7l-46,62.8C2082.9,882.2,2081.2,882.5,2080,881.6z"/>
			</g>
			<g>
				<path class="st6" d="M2149.5,932.5l-61-44.7c-1.2-0.9-1.4-2.5-0.6-3.7l46-62.8c0.9-1.2,2.5-1.4,3.7-0.6l61,44.7
					c1.2,0.9,1.4,2.5,0.6,3.7l-46,62.8C2152.4,933.1,2150.7,933.4,2149.5,932.5z"/>
			</g>
			<g>
				<path class="st6" d="M1482.5,333.4l-61-44.7c-1.2-0.9-1.4-2.5-0.6-3.7l46.4-63.3c0.9-1.2,2.5-1.4,3.7-0.6l61,44.7
					c1.2,0.9,1.4,2.5,0.6,3.7l-46.4,63.3C1485.4,334,1483.7,334.2,1482.5,333.4z"/>
			</g>
			<g>
				<path class="st6" d="M1552.4,383.7l-61-44.7c-1.2-0.9-1.4-2.5-0.6-3.7l46-62.8c0.9-1.2,2.5-1.4,3.7-0.6l61,44.7
					c1.2,0.9,1.4,2.5,0.6,3.7l-46,62.8C1555.3,384.3,1553.6,384.6,1552.4,383.7z"/>
			</g>
			<g>
				<path class="st6" d="M1623,435.4l-61-44.7c-1.2-0.9-1.4-2.5-0.6-3.7l46-62.8c0.9-1.2,2.5-1.4,3.7-0.6l61,44.7
					c1.2,0.9,1.4,2.5,0.6,3.7l-46,62.8C1625.8,436,1624.1,436.2,1623,435.4z"/>
			</g>
			<g>
				<path class="st6" d="M1693.4,486.9l-61-44.7c-1.2-0.9-1.4-2.5-0.6-3.7l45.5-62.2c0.9-1.2,2.5-1.4,3.7-0.6l61,44.7
					c1.2,0.9,1.4,2.5,0.6,3.7l-45.5,62.2C1696.2,487.5,1694.5,487.8,1693.4,486.9z"/>
			</g>
			<g>
				<path class="st6" d="M1763.7,538.5l-61-44.7c-1.2-0.9-1.4-2.5-0.6-3.7l45.5-62.2c0.9-1.2,2.5-1.4,3.7-0.6l61,44.7
					c1.2,0.9,1.4,2.5,0.6,3.7l-45.5,62.2C1766.6,539.1,1764.9,539.3,1763.7,538.5z"/>
			</g>
			<g>
				<path class="st6" d="M1834.4,590.2l-61-44.7c-1.2-0.9-1.4-2.5-0.6-3.7l45.5-62.2c0.9-1.2,2.5-1.4,3.7-0.6l61,44.7
					c1.2,0.9,1.4,2.5,0.6,3.7l-45.5,62.2C1837.2,590.8,1835.6,591.1,1834.4,590.2z"/>
			</g>
			<g>
				<path class="st6" d="M1904.6,641.6l-61-44.7c-1.2-0.9-1.4-2.5-0.6-3.7l45.5-62.2c0.9-1.2,2.5-1.4,3.7-0.6l61,44.7
					c1.2,0.9,1.4,2.5,0.6,3.7l-45.5,62.2C1907.4,642.2,1905.8,642.5,1904.6,641.6z"/>
			</g>
			<g>
				<path class="st6" d="M1974.8,693l-61-44.7c-1.2-0.9-1.4-2.5-0.6-3.7l45.5-62.2c0.9-1.2,2.5-1.4,3.7-0.6l61,44.7
					c1.2,0.9,1.4,2.5,0.6,3.7l-45.5,62.2C1977.6,693.7,1976,693.9,1974.8,693z"/>
			</g>
			<g>
				<path class="st6" d="M2044.4,744l-61-44.7c-1.2-0.9-1.4-2.5-0.6-3.7l45.5-62.2c0.9-1.2,2.5-1.4,3.7-0.6l61,44.7
					c1.2,0.9,1.4,2.5,0.6,3.7l-45.5,62.2C2047.2,744.6,2045.5,744.9,2044.4,744z"/>
			</g>
			<g>
				<path class="st6" d="M2113.3,794.5l-61-44.7c-1.2-0.9-1.4-2.5-0.6-3.7l45.5-62.2c0.9-1.2,2.5-1.4,3.7-0.6l61,44.7
					c1.2,0.9,1.4,2.5,0.6,3.7l-45.5,62.2C2116.2,795.1,2114.5,795.4,2113.3,794.5z"/>
			</g>
			<g>
				<path class="st6" d="M2182.3,845.1l-61-44.7c-1.2-0.9-1.4-2.5-0.6-3.7l45.5-62.2c0.9-1.2,2.5-1.4,3.7-0.6l61,44.7
					c1.2,0.9,1.4,2.5,0.6,3.7l-45.5,62.2C2185.2,845.7,2183.5,845.9,2182.3,845.1z"/>
			</g>
			<g>
				<path class="st6" d="M2253.9,897.5l-61-44.7c-1.2-0.9-1.4-2.5-0.6-3.7l45.5-62.2c0.9-1.2,2.5-1.4,3.7-0.6l61,44.7
					c1.2,0.9,1.4,2.5,0.6,3.7l-45.5,62.2C2256.8,898.1,2255.1,898.4,2253.9,897.5z"/>
			</g>
			<g>
				<path class="st6" d="M1429.8,186.6l-60.7-44.4c-1.2-0.9-1.4-2.5-0.6-3.7l46.4-63.3c0.9-1.2,2.5-1.4,3.7-0.6l60.7,44.4
					c1.2,0.9,1.4,2.5,0.6,3.7l-46.4,63.3C1432.6,187.2,1431,187.5,1429.8,186.6z"/>
			</g>
			<g>
				<path class="st6" d="M1501.5,239.1l-62.5-45.8c-1.2-0.9-1.4-2.5-0.6-3.7l46.4-63.3c0.9-1.2,2.5-1.4,3.7-0.6l62.5,45.8
					c1.2,0.9,1.4,2.5,0.6,3.7l-46.4,63.3C1504.3,239.7,1502.6,240,1501.5,239.1z"/>
			</g>
			<g>
				<path class="st6" d="M1573.1,291.6l-62.5-45.8c-1.2-0.9-1.4-2.5-0.6-3.7l46.4-63.3c0.9-1.2,2.5-1.4,3.7-0.6l62.5,45.8
					c1.2,0.9,1.4,2.5,0.6,3.7l-46.4,63.3C1575.9,292.2,1574.3,292.4,1573.1,291.6z"/>
			</g>
			<g>
				<path class="st6" d="M1643.4,343l-62.5-45.8c-1.2-0.9-1.4-2.5-0.6-3.7l46.4-63.3c0.9-1.2,2.5-1.4,3.7-0.6l62.5,45.8
					c1.2,0.9,1.4,2.5,0.6,3.7l-46.4,63.3C1646.2,343.7,1644.5,343.9,1643.4,343z"/>
			</g>
			<g>
				<path class="st6" d="M1713.6,394.5l-62.5-45.8c-1.2-0.9-1.4-2.5-0.6-3.7l46.4-63.3c0.9-1.2,2.5-1.4,3.7-0.6l62.5,45.8
					c1.2,0.9,1.4,2.5,0.6,3.7l-46.4,63.3C1716.5,395.1,1714.8,395.4,1713.6,394.5z"/>
			</g>
			<g>
				<path class="st6" d="M1783.6,445.8l-62.5-45.8c-1.2-0.9-1.4-2.5-0.6-3.7l46.4-63.3c0.9-1.2,2.5-1.4,3.7-0.6l62.5,45.8
					c1.2,0.9,1.4,2.5,0.6,3.7l-46.4,63.3C1786.4,446.4,1784.8,446.6,1783.6,445.8z"/>
			</g>
			<g>
				<path class="st6" d="M1855,498.1l-62.5-45.8c-1.2-0.9-1.4-2.5-0.6-3.7l46.4-63.3c0.9-1.2,2.5-1.4,3.7-0.6l62.5,45.8
					c1.2,0.9,1.4,2.5,0.6,3.7l-46.4,63.3C1857.9,498.7,1856.2,498.9,1855,498.1z"/>
			</g>
			<g>
				<path class="st6" d="M1925.4,549.6l-62.5-45.8c-1.2-0.9-1.4-2.5-0.6-3.7l46.4-63.3c0.9-1.2,2.5-1.4,3.7-0.6l62.5,45.8
					c1.2,0.9,1.4,2.5,0.6,3.7l-46.4,63.3C1928.2,550.2,1926.5,550.5,1925.4,549.6z"/>
			</g>
			<g>
				<path class="st6" d="M1996.2,601.5l-62.5-45.8c-1.2-0.9-1.4-2.5-0.6-3.7l46.4-63.3c0.9-1.2,2.5-1.4,3.7-0.6l62.5,45.8
					c1.2,0.9,1.4,2.5,0.6,3.7l-46.4,63.3C1999,602.1,1997.3,602.3,1996.2,601.5z"/>
			</g>
			<g>
				<path class="st6" d="M2065.9,652.5l-62.5-45.8c-1.2-0.9-1.4-2.5-0.6-3.7l46.4-63.3c0.9-1.2,2.5-1.4,3.7-0.6l62.5,45.8
					c1.2,0.9,1.4,2.5,0.6,3.7l-46.4,63.3C2068.7,653.1,2067.1,653.4,2065.9,652.5z"/>
			</g>
			<g>
				<path class="st6" d="M2136.6,704.3l-62.5-45.8c-1.2-0.9-1.4-2.5-0.6-3.7l46.4-63.3c0.9-1.2,2.5-1.4,3.7-0.6l62.5,45.8
					c1.2,0.9,1.4,2.5,0.6,3.7l-46.4,63.3C2139.4,704.9,2137.8,705.2,2136.6,704.3z"/>
			</g>
			<g>
				<path class="st6" d="M2207.3,756.1l-62.5-45.8c-1.2-0.9-1.4-2.5-0.6-3.7l46.4-63.3c0.9-1.2,2.5-1.4,3.7-0.6l62.5,45.8
					c1.2,0.9,1.4,2.5,0.6,3.7l-46.4,63.3C2210.1,756.7,2208.5,757,2207.3,756.1z"/>
			</g>
			<g>
				<path class="st6" d="M2277.6,807.6l-62.5-45.8c-1.2-0.9-1.4-2.5-0.6-3.7l46.4-63.3c0.9-1.2,2.5-1.4,3.7-0.6l62.5,45.8
					c1.2,0.9,1.4,2.5,0.6,3.7l-46.4,63.3C2280.5,808.2,2278.8,808.5,2277.6,807.6z"/>
			</g>
			<g>
				<path class="st6" d="M1864.4,938l-436.7-319.9c-1.2-0.9-1.4-2.5-0.6-3.7l44.7-61c0.9-1.2,2.5-1.4,3.7-0.6l436.7,319.9
					c1.2,0.9,1.4,2.5,0.6,3.7l-44.7,61C1867.2,938.6,1865.5,938.9,1864.4,938z"/>
			</g>
		</g>
	</g>
	<g class="st3">
		<path class="st7" d="M1361.9,462.8l-147.5-108.1c-1.2-0.9-1.4-2.5-0.6-3.7l44.7-61c0.9-1.2,2.5-1.4,3.7-0.6l147.5,108.1
			c1.2,0.9,1.4,2.5,0.6,3.7l-44.7,61C1364.7,463.4,1363.1,463.6,1361.9,462.8z"/>
		<path class="st7" d="M2257.9,1118.2l-185.3-135.7c-1.2-0.9-1.4-2.5-0.6-3.7l44.7-61c0.9-1.2,2.5-1.4,3.7-0.6l185.3,135.7
			c1.2,0.9,1.4,2.5,0.6,3.7l-44.7,61C2260.8,1118.8,2259.1,1119,2257.9,1118.2z"/>
		<path class="st7" d="M1378.2,364.8l-112-82c-1.2-0.9-1.4-2.5-0.6-3.7l44.7-61c0.9-1.2,2.5-1.4,3.7-0.6l112,82
			c1.2,0.9,1.4,2.5,0.6,3.7l-44.7,61C1381,365.4,1379.4,365.6,1378.2,364.8z"/>
		<path class="st7" d="M2309.9,1047.2l-149.8-109.7c-1.2-0.9-1.4-2.5-0.6-3.7l44.7-61c0.9-1.2,2.5-1.4,3.7-0.6l149.8,109.7
			c1.2,0.9,1.4,2.5,0.6,3.7l-44.7,61C2312.7,1047.8,2311.1,1048.1,2309.9,1047.2z"/>
		<path class="st7" d="M1411.8,281.6l-94.2-69c-1.2-0.9-1.4-2.5-0.6-3.7l46.4-63.3c0.9-1.2,2.5-1.4,3.7-0.6l94.2,69
			c1.2,0.9,1.4,2.5,0.6,3.7l-46.4,63.3C1414.7,282.2,1413,282.4,1411.8,281.6z"/>
		<path class="st7" d="M2361.7,976.5l-98.6-72.2c-1.2-0.9-1.4-2.5-0.6-3.7l45.5-62.2c0.9-1.2,2.5-1.4,3.7-0.6l98.6,72.2
			c1.2,0.9,1.4,2.5,0.6,3.7l-45.5,62.2C2364.6,977.1,2362.9,977.3,2361.7,976.5z"/>
		<path class="st7" d="M2412.9,906.7l-126.5-92.6c-1.2-0.9-1.4-2.5-0.6-3.7l46.4-63.3c0.9-1.2,2.5-1.4,3.7-0.6l126.5,92.6
			c1.2,0.9,1.4,2.5,0.6,3.7l-46.4,63.3C2415.7,907.3,2414,907.5,2412.9,906.7z"/>
		<path class="st7" d="M1241.6,481.8l-78.3-57.4c-1.2-0.9-1.4-2.5-0.6-3.7l44.7-61c0.9-1.2,2.5-1.4,3.7-0.6l78.3,57.4
			c1.2,0.9,1.4,2.5,0.6,3.7l-44.7,61C1244.4,482.4,1242.8,482.7,1241.6,481.8z"/>
		<path class="st7" d="M1329.6,546.3l-79.4-58.2c-1.2-0.9-1.4-2.5-0.6-3.7l44.7-61c0.9-1.2,2.5-1.4,3.7-0.6l79.4,58.2
			c1.2,0.9,1.4,2.5,0.6,3.7l-44.7,61C1332.4,546.9,1330.8,547.2,1329.6,546.3z"/>
		<path class="st7" d="M1418.3,611.3l-79.4-58.2c-1.2-0.9-1.4-2.5-0.6-3.7l44.7-61c0.9-1.2,2.5-1.4,3.7-0.6l79.4,58.2
			c1.2,0.9,1.4,2.5,0.6,3.7l-44.7,61C1421.2,611.9,1419.5,612.2,1418.3,611.3z"/>
		<path class="st7" d="M1950.2,1000.9l-76-55.7c-1.2-0.9-1.4-2.5-0.6-3.7l44.7-61c0.9-1.2,2.5-1.4,3.7-0.6l76,55.7
			c1.2,0.9,1.4,2.5,0.6,3.7l-44.7,61C1953,1001.5,1951.4,1001.7,1950.2,1000.9z"/>
		<path class="st7" d="M2034.8,1062.8l-76.6-56.1c-1.2-0.9-1.4-2.5-0.6-3.7l44.7-61c0.9-1.2,2.5-1.4,3.7-0.6l76.6,56.1
			c1.2,0.9,1.4,2.5,0.6,3.7l-44.7,61C2037.6,1063.4,2036,1063.7,2034.8,1062.8z"/>
		<path class="st7" d="M2119.3,1124.8l-76.6-56.1c-1.2-0.9-1.4-2.5-0.6-3.7l44.7-61c0.9-1.2,2.5-1.4,3.7-0.6l76.6,56.1
			c1.2,0.9,1.4,2.5,0.6,3.7l-44.7,61C2122.2,1125.4,2120.5,1125.6,2119.3,1124.8z"/>
		<path class="st7" d="M2204.8,1187.3l-76.6-56.1c-1.2-0.9-1.4-2.5-0.6-3.7l44.7-61c0.9-1.2,2.5-1.4,3.7-0.6l76.6,56.1
			c1.2,0.9,1.4,2.5,0.6,3.7l-44.7,61C2207.6,1188,2206,1188.2,2204.8,1187.3z"/>
	</g>
	<polygon class="st2" points="2510.5,830 2518.7,904.3 2231.8,1301.7 2215,1233.4 	"/>
	<polygon class="st2" points="2231.8,1301.7 1145.7,501.4 1124.7,434.9 2215,1233.4 	"/>
</g>
<g>
	<g>
		<path class="st8" d="M1436.7,90.7L1436.7,90.7c-87.3,0-158-70.7-158-158l0,0c0-87.3,70.7-158,158-158l0,0c87.3,0,158,70.7,158,158
			l0,0C1594.7,19.9,1523.9,90.7,1436.7,90.7z"/>
	</g>
	<g>
		<path class="st8" d="M1818.2,206.5L1818.2,206.5c-36.1,0-65.4-29.3-65.4-65.4l0,0c0-36.1,29.3-65.4,65.4-65.4l0,0
			c36.1,0,65.4,29.3,65.4,65.4l0,0C1883.6,177.3,1854.3,206.5,1818.2,206.5z"/>
	</g>
	<g>
		<path class="st8" d="M1686.2,113.6L1686.2,113.6c-12.6,0-22.9-10.2-22.9-22.9l0,0c0-12.6,10.2-22.9,22.9-22.9l0,0
			c12.6,0,22.9,10.2,22.9,22.9l0,0C1709,103.4,1698.8,113.6,1686.2,113.6z"/>
	</g>
	<g>
		<path class="st8" d="M1809.8,326L1809.8,326c-22.1,0-40-17.9-40-40l0,0c0-22.1,17.9-40,40-40l0,0c22.1,0,40,17.9,40,40l0,0
			C1849.8,308.1,1831.9,326,1809.8,326z"/>
	</g>
	<g>
		<path class="st8" d="M95.8,979.5L95.8,979.5c10.5,21.6,36.5,30.6,58.1,20.1l0,0c21.6-10.5,30.6-36.5,20.1-58.1l0,0
			c-10.5-21.6-36.5-30.6-58.1-20.1l0,0C94.3,931.9,85.3,957.9,95.8,979.5z"/>
	</g>
	<g>
		<path class="st8" d="M189.8,1031.5L189.8,1031.5c3.7,7.6,12.8,10.7,20.3,7l0,0c7.6-3.7,10.7-12.8,7-20.3l0,0
			c-3.7-7.6-12.8-10.7-20.3-7l0,0C189.3,1014.8,186.1,1023.9,189.8,1031.5z"/>
	</g>
	<g>
		<path class="st8" d="M26.8,1019.3L26.8,1019.3c6.4,13.2,22.3,18.7,35.5,12.3l0,0c13.2-6.4,18.7-22.3,12.3-35.5l0,0
			c-6.4-13.2-22.3-18.7-35.5-12.3l0,0C25.9,990.2,20.4,1006.1,26.8,1019.3z"/>
	</g>
	<g>
		<path class="st8" d="M38.5,91.3L38.5,91.3c51.8,25.4,114.5,4,139.9-47.8l0,0c25.4-51.8,4-114.5-47.8-139.9l0,0
			c-51.8-25.4-114.5-4-139.9,47.8l0,0C-34.7,3.2-13.3,65.9,38.5,91.3z"/>
	</g>
	<g>
		<path class="st8" d="M293.6,50.9L293.6,50.9c18.1,8.9,40.1,1.4,49-16.7l0,0c8.9-18.1,1.4-40.1-16.7-49l0,0
			c-18.1-8.9-40.1-1.4-49,16.7l0,0C267.9,20.1,275.4,42,293.6,50.9z"/>
	</g>
	<g>
		<path class="st8" d="M-33.5,268.7L-33.5,268.7c31.7,15.5,70,2.5,85.5-29.2l0,0c15.5-31.7,2.5-70-29.2-85.5l0,0
			c-31.7-15.5-70-2.5-85.5,29.2l0,0C-78.3,214.9-65.2,253.2-33.5,268.7z"/>
	</g>
	<polygon class="st8" points="2420.9,721.4 2439.5,794.6 2207.5,1232.4 2181.2,1166.4 	"/>
	
		<rect x="1447.2" y="-63.1" transform="matrix(0.4743 -0.8804 0.8804 0.4743 347.8578 1822.4463)" class="st9" width="505.4" height="1366"/>
	<g>
		<path class="st8" d="M1296.4,554.7l-67.3-36.3c-1.3-0.7-1.8-2.3-1.1-3.6l36.3-67.3c0.7-1.3,2.3-1.8,3.6-1.1l67.3,36.3
			c1.3,0.7,1.8,2.3,1.1,3.6l-36.3,67.3C1299.3,554.9,1297.7,555.4,1296.4,554.7z"/>
	</g>
	<g>
		<path class="st8" d="M1372.8,595.8l-67.3-36.3c-1.3-0.7-1.8-2.3-1.1-3.6l36.3-67.3c0.7-1.3,2.3-1.8,3.6-1.1l67.3,36.3
			c1.3,0.7,1.8,2.3,1.1,3.6l-36.3,67.3C1375.7,596,1374.1,596.5,1372.8,595.8z"/>
	</g>
	<g>
		<path class="st8" d="M1451,638l-67.3-36.3c-1.3-0.7-1.8-2.3-1.1-3.6l36.3-67.3c0.7-1.3,2.3-1.8,3.6-1.1l67.3,36.3
			c1.3,0.7,1.8,2.3,1.1,3.6l-36.3,67.3C1453.9,638.2,1452.3,638.7,1451,638z"/>
	</g>
	<g>
		<path class="st8" d="M1528.9,679.1l-67.3-36.3c-1.3-0.7-1.8-2.3-1.1-3.6l36.3-67.3c0.7-1.3,2.3-1.8,3.6-1.1l67.3,36.3
			c1.3,0.7,1.8,2.3,1.1,3.6l-36.3,67.3C1531.8,679.3,1530.2,679.8,1528.9,679.1z"/>
	</g>
	<g>
		<path class="st8" d="M1606,720.7l-67.3-36.3c-1.3-0.7-1.8-2.3-1.1-3.6l36.3-67.3c0.7-1.3,2.3-1.8,3.6-1.1l67.3,36.3
			c1.3,0.7,1.8,2.3,1.1,3.6l-36.3,67.3C1609,720.9,1607.4,721.4,1606,720.7z"/>
	</g>
	<g>
		<path class="st8" d="M1683.2,762.3l-67.3-36.3c-1.3-0.7-1.8-2.3-1.1-3.6l36.3-67.3c0.7-1.3,2.3-1.8,3.6-1.1l67.3,36.3
			c1.3,0.7,1.8,2.3,1.1,3.6l-36.3,67.3C1686.2,762.5,1684.6,763,1683.2,762.3z"/>
	</g>
	<g>
		<path class="st8" d="M1760.4,803.8l-67.3-36.3c-1.3-0.7-1.8-2.3-1.1-3.6l36.3-67.3c0.7-1.3,2.3-1.8,3.6-1.1l67.3,36.3
			c1.3,0.7,1.8,2.3,1.1,3.6l-36.3,67.3C1763.4,804.1,1761.7,804.5,1760.4,803.8z"/>
	</g>
	<g>
		<path class="st8" d="M1837,845.1l-67.3-36.3c-1.3-0.7-1.8-2.3-1.1-3.6l36.3-67.3c0.7-1.3,2.3-1.8,3.6-1.1l67.3,36.3
			c1.3,0.7,1.8,2.3,1.1,3.6l-36.3,67.3C1840,845.3,1838.4,845.8,1837,845.1z"/>
	</g>
	<g>
		<path class="st8" d="M1915.1,887.2l-67.3-36.3c-1.3-0.7-1.8-2.3-1.1-3.6L1883,780c0.7-1.3,2.3-1.8,3.6-1.1l67.3,36.3
			c1.3,0.7,1.8,2.3,1.1,3.6l-36.3,67.3C1918.1,887.4,1916.4,887.9,1915.1,887.2z"/>
	</g>
	<g>
		<path class="st8" d="M1992.1,928.6l-67.3-36.3c-1.3-0.7-1.8-2.3-1.1-3.6l36.3-67.3c0.7-1.3,2.3-1.8,3.6-1.1l67.3,36.3
			c1.3,0.7,1.8,2.3,1.1,3.6l-36.3,67.3C1995,928.9,1993.4,929.3,1992.1,928.6z"/>
	</g>
	<g>
		<path class="st8" d="M1299.9,456.4l-67.3-36.3c-1.3-0.7-1.8-2.3-1.1-3.6l36.9-68.6c0.7-1.3,2.3-1.8,3.6-1.1l67.3,36.3
			c1.3,0.7,1.8,2.3,1.1,3.6l-36.9,68.6C1302.9,456.6,1301.2,457.1,1299.9,456.4z"/>
	</g>
	<path class="st0" d="M1378.1,498.2l-67.3-36.3c-1.3-0.7-1.8-2.3-1.1-3.6l36.8-68.3c0.7-1.3,2.3-1.8,3.6-1.1l67.3,36.3
		c1.3,0.7,1.8,2.3,1.1,3.6l-36.8,68.3C1381,498.4,1379.4,498.9,1378.1,498.2z"/>
	<path class="st0" d="M1454.2,539.2l-67.3-36.3c-1.3-0.7-1.8-2.3-1.1-3.6l36.8-68.3c0.7-1.3,2.3-1.8,3.6-1.1l67.3,36.3
		c1.3,0.7,1.8,2.3,1.1,3.6l-36.8,68.3C1457.1,539.4,1455.5,539.9,1454.2,539.2z"/>
	<path class="st0" d="M1531,580.5l-67.3-36.3c-1.3-0.7-1.8-2.3-1.1-3.6l36.8-68.3c0.7-1.3,2.3-1.8,3.6-1.1l67.3,36.3
		c1.3,0.7,1.8,2.3,1.1,3.6l-36.8,68.3C1533.9,580.8,1532.3,581.2,1531,580.5z"/>
	<g>
		<path class="st8" d="M1609.1,622.6l-67.3-36.3c-1.3-0.7-1.8-2.3-1.1-3.6l36.8-68.3c0.7-1.3,2.3-1.8,3.6-1.1l67.3,36.3
			c1.3,0.7,1.8,2.3,1.1,3.6l-36.8,68.3C1612,622.8,1610.4,623.3,1609.1,622.6z"/>
	</g>
	<g>
		<path class="st8" d="M1686.6,664.4l-67.3-36.3c-1.3-0.7-1.8-2.3-1.1-3.6l36.8-68.3c0.7-1.3,2.3-1.8,3.6-1.1l67.3,36.3
			c1.3,0.7,1.8,2.3,1.1,3.6l-36.8,68.3C1689.5,664.6,1687.9,665.1,1686.6,664.4z"/>
	</g>
	<g>
		<path class="st8" d="M1765.6,707l-67.3-36.3c-1.3-0.7-1.8-2.3-1.1-3.6l36.8-68.3c0.7-1.3,2.3-1.8,3.6-1.1l67.3,36.3
			c1.3,0.7,1.8,2.3,1.1,3.6l-36.8,68.3C1768.6,707.2,1767,707.7,1765.6,707z"/>
	</g>
	<g>
		<path class="st8" d="M1843.2,748.8l-67.3-36.3c-1.3-0.7-1.8-2.3-1.1-3.6l36.8-68.3c0.7-1.3,2.3-1.8,3.6-1.1l67.3,36.3
			c1.3,0.7,1.8,2.3,1.1,3.6l-36.8,68.3C1846.2,749,1844.5,749.5,1843.2,748.8z"/>
	</g>
	<g>
		<path class="st8" d="M1920.5,791.6l-67.3-36.3c-1.3-0.7-1.8-2.3-1.1-3.6l37.3-69.3c0.7-1.3,2.3-1.8,3.6-1.1l67.3,36.3
			c1.3,0.7,1.8,2.3,1.1,3.6l-37.3,69.3C1923.4,791.9,1921.8,792.4,1920.5,791.6z"/>
	</g>
	<g>
		<path class="st8" d="M1997.2,833l-67.3-36.3c-1.3-0.7-1.8-2.3-1.1-3.6l37.3-69.3c0.7-1.3,2.3-1.8,3.6-1.1L2037,759
			c1.3,0.7,1.8,2.3,1.1,3.6l-37.3,69.3C2000.1,833.2,1998.5,833.7,1997.2,833z"/>
	</g>
	<g>
		<path class="st8" d="M2073.9,874.3l-67.3-36.3c-1.3-0.7-1.8-2.3-1.1-3.6l37.3-69.3c0.7-1.3,2.3-1.8,3.6-1.1l67.3,36.3
			c1.3,0.7,1.8,2.3,1.1,3.6l-37.3,69.3C2076.8,874.5,2075.2,875,2073.9,874.3z"/>
	</g>
	<g>
		<path class="st8" d="M1322.7,367.2l-67.3-36.3c-1.3-0.7-1.8-2.3-1.1-3.6l37.6-69.8c0.7-1.3,2.3-1.8,3.6-1.1l67.3,36.3
			c1.3,0.7,1.8,2.3,1.1,3.6l-37.6,69.8C1325.7,367.4,1324,367.9,1322.7,367.2z"/>
	</g>
	<g>
		<path class="st8" d="M1399.7,407.8l-67.3-36.3c-1.3-0.7-1.8-2.3-1.1-3.6l37.3-69.2c0.7-1.3,2.3-1.8,3.6-1.1l67.3,36.3
			c1.3,0.7,1.8,2.3,1.1,3.6l-37.3,69.2C1402.7,408.1,1401,408.5,1399.7,407.8z"/>
	</g>
	<path class="st0" d="M1477.5,449.8l-67.3-36.3c-1.3-0.7-1.8-2.3-1.1-3.6l37.3-69.2c0.7-1.3,2.3-1.8,3.6-1.1l67.3,36.3
		c1.3,0.7,1.8,2.3,1.1,3.6l-37.3,69.2C1480.4,450,1478.8,450.5,1477.5,449.8z"/>
	<g>
		<path class="st8" d="M1555.2,491.6l-67.3-36.3c-1.3-0.7-1.8-2.3-1.1-3.6l36.9-68.6c0.7-1.3,2.3-1.8,3.6-1.1l67.3,36.3
			c1.3,0.7,1.8,2.3,1.1,3.6l-36.9,68.6C1558.1,491.8,1556.5,492.3,1555.2,491.6z"/>
	</g>
	<g>
		<path class="st8" d="M1632.8,533.4l-67.3-36.3c-1.3-0.7-1.8-2.3-1.1-3.6l36.9-68.6c0.7-1.3,2.3-1.8,3.6-1.1l67.3,36.3
			c1.3,0.7,1.8,2.3,1.1,3.6l-36.9,68.6C1635.7,533.6,1634.1,534.1,1632.8,533.4z"/>
	</g>
	<g>
		<path class="st8" d="M1710.7,575.4l-67.3-36.3c-1.3-0.7-1.8-2.3-1.1-3.6l36.9-68.6c0.7-1.3,2.3-1.8,3.6-1.1l67.3,36.3
			c1.3,0.7,1.8,2.3,1.1,3.6l-36.9,68.6C1713.7,575.6,1712,576.1,1710.7,575.4z"/>
	</g>
	<g>
		<path class="st8" d="M1788.2,617.1l-67.3-36.3c-1.3-0.7-1.8-2.3-1.1-3.6l36.9-68.6c0.7-1.3,2.3-1.8,3.6-1.1l67.3,36.3
			c1.3,0.7,1.8,2.3,1.1,3.6l-36.9,68.6C1791.1,617.3,1789.5,617.8,1788.2,617.1z"/>
	</g>
	<g>
		<path class="st8" d="M1865.6,658.8l-67.3-36.3c-1.3-0.7-1.8-2.3-1.1-3.6l36.9-68.6c0.7-1.3,2.3-1.8,3.6-1.1l67.3,36.3
			c1.3,0.7,1.8,2.3,1.1,3.6l-36.9,68.6C1868.5,659,1866.9,659.5,1865.6,658.8z"/>
	</g>
	<g>
		<path class="st8" d="M1942.3,700.2l-67.3-36.3c-1.3-0.7-1.8-2.3-1.1-3.6l36.9-68.6c0.7-1.3,2.3-1.8,3.6-1.1l67.3,36.3
			c1.3,0.7,1.8,2.3,1.1,3.6l-36.9,68.6C1945.3,700.4,1943.6,700.9,1942.3,700.2z"/>
	</g>
	<g>
		<path class="st8" d="M2018.4,741.1l-67.3-36.3c-1.3-0.7-1.8-2.3-1.1-3.6l36.9-68.6c0.7-1.3,2.3-1.8,3.6-1.1l67.3,36.3
			c1.3,0.7,1.8,2.3,1.1,3.6L2022,740C2021.4,741.4,2019.7,741.8,2018.4,741.1z"/>
	</g>
	<g>
		<path class="st8" d="M2094.5,782.1l-67.3-36.3c-1.3-0.7-1.8-2.3-1.1-3.6l36.9-68.6c0.7-1.3,2.3-1.8,3.6-1.1l67.3,36.3
			c1.3,0.7,1.8,2.3,1.1,3.6l-36.9,68.6C2097.4,782.3,2095.8,782.8,2094.5,782.1z"/>
	</g>
	<g>
		<path class="st8" d="M2173.5,824.7l-67.3-36.3c-1.3-0.7-1.8-2.3-1.1-3.6l36.9-68.6c0.7-1.3,2.3-1.8,3.6-1.1l67.3,36.3
			c1.3,0.7,1.8,2.3,1.1,3.6l-36.9,68.6C2176.4,824.9,2174.8,825.4,2173.5,824.7z"/>
	</g>
	<path class="st0" d="M1249.5,227.6l-66.9-36.1c-1.3-0.7-1.8-2.3-1.1-3.6l37.6-69.8c0.7-1.3,2.3-1.8,3.6-1.1l66.9,36.1
		c1.3,0.7,1.8,2.3,1.1,3.6l-37.6,69.8C1252.5,227.8,1250.8,228.3,1249.5,227.6z"/>
	<g>
		<path class="st8" d="M1328.6,270.2l-68.9-37.1c-1.3-0.7-1.8-2.3-1.1-3.6l37.6-69.8c0.7-1.3,2.3-1.8,3.6-1.1l68.9,37.1
			c1.3,0.7,1.8,2.3,1.1,3.6l-37.6,69.8C1331.5,270.4,1329.9,270.9,1328.6,270.2z"/>
	</g>
	<g>
		<path class="st8" d="M1407.6,312.8l-68.9-37.1c-1.3-0.7-1.8-2.3-1.1-3.6l37.6-69.8c0.7-1.3,2.3-1.8,3.6-1.1l68.9,37.1
			c1.3,0.7,1.8,2.3,1.1,3.6l-37.6,69.8C1410.5,313,1408.9,313.5,1407.6,312.8z"/>
	</g>
	<g>
		<path class="st8" d="M1485.1,354.5l-68.9-37.1c-1.3-0.7-1.8-2.3-1.1-3.6l37.6-69.8c0.7-1.3,2.3-1.8,3.6-1.1l68.9,37.1
			c1.3,0.7,1.8,2.3,1.1,3.6l-37.6,69.8C1488,354.7,1486.4,355.2,1485.1,354.5z"/>
	</g>
	<g>
		<path class="st8" d="M1562.6,396.2l-68.9-37.1c-1.3-0.7-1.8-2.3-1.1-3.6l37.6-69.8c0.7-1.3,2.3-1.8,3.6-1.1l68.9,37.1
			c1.3,0.7,1.8,2.3,1.1,3.6l-37.6,69.8C1565.5,396.5,1563.9,396.9,1562.6,396.2z"/>
	</g>
	<g>
		<path class="st8" d="M1639.8,437.8l-68.9-37.1c-1.3-0.7-1.8-2.3-1.1-3.6l37.6-69.8c0.7-1.3,2.3-1.8,3.6-1.1l68.9,37.1
			c1.3,0.7,1.8,2.3,1.1,3.6l-37.6,69.8C1642.7,438,1641.1,438.5,1639.8,437.8z"/>
	</g>
	<g>
		<path class="st8" d="M1718.6,480.3l-68.9-37.1c-1.3-0.7-1.8-2.3-1.1-3.6l37.6-69.8c0.7-1.3,2.3-1.8,3.6-1.1l68.9,37.1
			c1.3,0.7,1.8,2.3,1.1,3.6l-37.6,69.8C1721.5,480.5,1719.9,481,1718.6,480.3z"/>
	</g>
	<g>
		<path class="st8" d="M1796.2,522.1l-68.9-37.1c-1.3-0.7-1.8-2.3-1.1-3.6l37.6-69.8c0.7-1.3,2.3-1.8,3.6-1.1l68.9,37.1
			c1.3,0.7,1.8,2.3,1.1,3.6l-37.6,69.8C1799.1,522.3,1797.5,522.8,1796.2,522.1z"/>
	</g>
	<g>
		<path class="st8" d="M1874.2,564.1l-68.9-37.1c-1.3-0.7-1.8-2.3-1.1-3.6l37.6-69.8c0.7-1.3,2.3-1.8,3.6-1.1l68.9,37.1
			c1.3,0.7,1.8,2.3,1.1,3.6l-37.6,69.8C1877.2,564.4,1875.6,564.8,1874.2,564.1z"/>
	</g>
	<g>
		<path class="st8" d="M1951.2,605.6l-68.9-37.1c-1.3-0.7-1.8-2.3-1.1-3.6l37.6-69.8c0.7-1.3,2.3-1.8,3.6-1.1l68.9,37.1
			c1.3,0.7,1.8,2.3,1.1,3.6l-37.6,69.8C1954.1,605.8,1952.5,606.3,1951.2,605.6z"/>
	</g>
	<g>
		<path class="st8" d="M2029.1,647.6l-68.9-37.1c-1.3-0.7-1.8-2.3-1.1-3.6l37.6-69.8c0.7-1.3,2.3-1.8,3.6-1.1l68.9,37.1
			c1.3,0.7,1.8,2.3,1.1,3.6l-37.6,69.8C2032.1,647.8,2030.4,648.3,2029.1,647.6z"/>
	</g>
	<g>
		<path class="st8" d="M2107.1,689.6l-68.9-37.1c-1.3-0.7-1.8-2.3-1.1-3.6l37.6-69.8c0.7-1.3,2.3-1.8,3.6-1.1l68.9,37.1
			c1.3,0.7,1.8,2.3,1.1,3.6l-37.6,69.8C2110.1,689.8,2108.4,690.3,2107.1,689.6z"/>
	</g>
	<g>
		<path class="st8" d="M2184.7,731.4l-68.9-37.1c-1.3-0.7-1.8-2.3-1.1-3.6l37.6-69.8c0.7-1.3,2.3-1.8,3.6-1.1l68.9,37.1
			c1.3,0.7,1.8,2.3,1.1,3.6l-37.6,69.8C2187.7,731.6,2186,732.1,2184.7,731.4z"/>
	</g>
	<g>
		<path class="st8" d="M1789.1,919.4l-481.7-259.5c-1.3-0.7-1.8-2.3-1.1-3.6l36.3-67.3c0.7-1.3,2.3-1.8,3.6-1.1l481.7,259.5
			c1.3,0.7,1.8,2.3,1.1,3.6l-36.3,67.3C1792,919.6,1790.4,920.1,1789.1,919.4z"/>
	</g>
	<g>
		<path class="st0" d="M1220,513.5l-162.7-87.7c-1.3-0.7-1.8-2.3-1.1-3.6l36.3-67.3c0.7-1.3,2.3-1.8,3.6-1.1l162.7,87.7
			c1.3,0.7,1.8,2.3,1.1,3.6l-36.3,67.3C1222.9,513.7,1221.3,514.2,1220,513.5z"/>
		<path class="st0" d="M2208.2,1045l-204.4-110.1c-1.3-0.7-1.8-2.3-1.1-3.6L2039,864c0.7-1.3,2.3-1.8,3.6-1.1L2247,973
			c1.3,0.7,1.8,2.3,1.1,3.6l-36.3,67.3C2211.1,1045.3,2209.5,1045.7,2208.2,1045z"/>
		<path class="st0" d="M1222.6,413.2l-123.5-66.6c-1.3-0.7-1.8-2.3-1.1-3.6l36.3-67.3c0.7-1.3,2.3-1.8,3.6-1.1l123.5,66.6
			c1.3,0.7,1.8,2.3,1.1,3.6l-36.3,67.3C1225.6,413.4,1223.9,413.9,1222.6,413.2z"/>
		<path class="st0" d="M2250.4,966.8l-165.2-89c-1.3-0.7-1.8-2.3-1.1-3.6l36.3-67.3c0.7-1.3,2.3-1.8,3.6-1.1l165.2,89
			c1.3,0.7,1.8,2.3,1.1,3.6l-36.3,67.3C2253.3,967,2251.7,967.5,2250.4,966.8z"/>
		<path class="st0" d="M1244.7,325.2l-104-56c-1.3-0.7-1.8-2.3-1.1-3.6l37.6-69.8c0.7-1.3,2.3-1.8,3.6-1.1l104,56
			c1.3,0.7,1.8,2.3,1.1,3.6l-37.6,69.8C1247.7,325.4,1246,325.9,1244.7,325.2z"/>
		<path class="st0" d="M2292.4,888.7l-108.8-58.6c-1.3-0.7-1.8-2.3-1.1-3.6l36.9-68.6c0.7-1.3,2.3-1.8,3.6-1.1l108.8,58.6
			c1.3,0.7,1.8,2.3,1.1,3.6l-36.9,68.6C2295.3,888.9,2293.7,889.4,2292.4,888.7z"/>
		<path class="st0" d="M2333.9,811.7l-139.5-75.1c-1.3-0.7-1.8-2.3-1.1-3.6l37.6-69.8c0.7-1.3,2.3-1.8,3.6-1.1l139.5,75.1
			c1.3,0.7,1.8,2.3,1.1,3.6l-37.6,69.8C2336.8,812,2335.2,812.4,2333.9,811.7z"/>
		<path class="st0" d="M1102.1,549.3l-86.4-46.5c-1.3-0.7-1.8-2.3-1.1-3.6l36.3-67.3c0.7-1.3,2.3-1.8,3.6-1.1l86.4,46.5
			c1.3,0.7,1.8,2.3,1.1,3.6l-36.3,67.3C1105.1,549.5,1103.5,550,1102.1,549.3z"/>
		<path class="st0" d="M1199.2,601.6l-87.6-47.2c-1.3-0.7-1.8-2.3-1.1-3.6l36.3-67.3c0.7-1.3,2.3-1.8,3.6-1.1l87.6,47.2
			c1.3,0.7,1.8,2.3,1.1,3.6l-36.3,67.3C1202.2,601.8,1200.5,602.3,1199.2,601.6z"/>
		<path class="st0" d="M1297.1,654.4l-87.6-47.2c-1.3-0.7-1.8-2.3-1.1-3.6l36.3-67.3c0.7-1.3,2.3-1.8,3.6-1.1l87.6,47.2
			c1.3,0.7,1.8,2.3,1.1,3.6l-36.3,67.3C1300.1,654.6,1298.4,655.1,1297.1,654.4z"/>
		<path class="st0" d="M1883.8,970.4l-83.8-45.1c-1.3-0.7-1.8-2.3-1.1-3.6l36.3-67.3c0.7-1.3,2.3-1.8,3.6-1.1l83.8,45.1
			c1.3,0.7,1.8,2.3,1.1,3.6l-36.3,67.3C1886.7,970.6,1885.1,971.1,1883.8,970.4z"/>
		<path class="st0" d="M1977.1,1020.7l-84.5-45.5c-1.3-0.7-1.8-2.3-1.1-3.6l36.3-67.3c0.7-1.3,2.3-1.8,3.6-1.1l84.5,45.5
			c1.3,0.7,1.8,2.3,1.1,3.6l-36.3,67.3C1980,1020.9,1978.4,1021.4,1977.1,1020.7z"/>
		<path class="st0" d="M2070.4,1070.9l-84.5-45.5c-1.3-0.7-1.8-2.3-1.1-3.6l36.3-67.3c0.7-1.3,2.3-1.8,3.6-1.1l84.5,45.5
			c1.3,0.7,1.8,2.3,1.1,3.6l-36.3,67.3C2073.3,1071.1,2071.7,1071.6,2070.4,1070.9z"/>
		<path class="st0" d="M2164.6,1121.7l-84.5-45.5c-1.3-0.7-1.8-2.3-1.1-3.6l36.3-67.3c0.7-1.3,2.3-1.8,3.6-1.1l84.5,45.5
			c1.3,0.7,1.8,2.3,1.1,3.6l-36.3,67.3C2167.5,1121.9,2165.9,1122.4,2164.6,1121.7z"/>
	</g>
	<polygon class="st8" points="2207.5,1232.4 1008.9,582.2 978.7,518.6 2181.2,1166.4 	"/>
	<g>
		<path class="st8" d="M1444.7,1026.8L1444.7,1026.8c11-17.9,5.5-41.2-12.4-52.3l0,0c-17.9-11-41.2-5.5-52.3,12.4l0,0
			c-11,17.9-5.5,41.2,12.4,52.3l0,0C1410.3,1050.2,1433.7,1044.6,1444.7,1026.8z"/>
	</g>
	<g>
		<path class="st8" d="M1415.9,895.6L1415.9,895.6c3.9-6.3,1.9-14.5-4.3-18.2l0,0c-6.3-3.9-14.5-1.9-18.2,4.3l0,0
			c-3.9,6.3-1.9,14.5,4.3,18.2l0,0C1403.8,903.8,1412,901.9,1415.9,895.6z"/>
	</g>
	<g>
		<path class="st8" d="M1538.5,1024.3L1538.5,1024.3c6.7-10.9,3.3-25.2-7.6-31.9l0,0c-10.9-6.7-25.2-3.3-31.9,7.6l0,0
			c-6.7,10.9-3.3,25.2,7.6,31.9l0,0C1517.4,1038.6,1531.7,1035.2,1538.5,1024.3z"/>
	</g>
</g>
</svg>
