<svg xmlns="http://www.w3.org/2000/svg" viewBox="0 0 1139.63 705.66"><defs><style>.cls-1{fill:#1a1a1a;}</style></defs><g id="Capa_2" data-name="Capa 2"><g id="Capa_1-2" data-name="Capa 1"><path class="cls-1" d="M432.1,142c40.55-70,98.27-115.74,176.12-134.61,133-32.26,271.08,43.44,315.52,173.63,5.61,16.43,13.17,24,30.31,29.12,101.83,30.31,165.1,99.22,181.81,203.33,16.75,104.36-22.78,189-109.81,249.84-41.92,29.33-89.42,42.23-140.37,42.25q-340.9.13-681.81,0c-99.87,0-184.56-69.82-200.94-168.4-18.66-112.32,53.86-209.06,156.53-231.9,10.32-2.29,13.58-6.63,15.86-15.49C195.7,210.63,246,160.57,324.55,139.46,360.12,129.9,396.14,132.88,432.1,142ZM239.93,371.64c-12.07,0-23.36-.14-34.65,0-44.85.67-82.3,17.39-108.45,54.26-30.65,43.19-34.51,90.28-10.2,137.17,24.53,47.34,65.56,71.09,119.07,71.14q339,.32,678,.08c25.07,0,49.4-3.81,72.46-14.19C1023,590.06,1061.6,538.79,1067,465.64c5.17-69.47-23.61-124.26-80.65-163.79-29.5-20.46-63-30.09-98.74-30-13.77.05-20.26-4.34-20.22-18a50.4,50.4,0,0,0-.65-7.55C857.31,181.54,825.28,131,768.64,98.19c-107.3-62.11-243.3-11.45-285.35,105.12-4.24,11.75-8.73,23.41-13.54,36.28C457.43,233,446.41,227,435.28,221.26c-83.73-43.55-178.86,4.61-192.43,97.87C240.38,336.05,240.86,353.41,239.93,371.64Z"/></g></g></svg>